Nobile-BoldItalic.ufo
<glyph name="numbersign" format="1">
  <advance width="1084"/>
  <unicode hex="0023"/>
  <outline>
    <contour>
      <point x="599" y="548" type="line"/>
      <point x="415" y="548" type="line"/>
      <point x="353" y="277" type="line"/>
      <point x="174" y="277" type="line"/>
      <point x="235" y="548" type="line"/>
      <point x="90" y="548" type="line"/>
      <point x="105" y="690" type="line"/>
      <point x="265" y="690" type="line"/>
      <point x="317" y="909" type="line"/>
      <point x="157" y="909" type="line"/>
      <point x="174" y="1051" type="line"/>
      <point x="351" y="1051" type="line"/>
      <point x="413" y="1335" type="line"/>
      <point x="589" y="1335" type="line"/>
      <point x="527" y="1051" type="line"/>
      <point x="714" y="1051" type="line"/>
      <point x="774" y="1333" type="line"/>
      <point x="953" y="1333" type="line"/>
      <point x="891" y="1051" type="line"/>
      <point x="1032" y="1051" type="line"/>
      <point x="1015" y="909" type="line"/>
      <point x="860" y="909" type="line"/>
      <point x="808" y="690" type="line"/>
      <point x="969" y="690" type="line"/>
      <point x="952" y="548" type="line"/>
      <point x="776" y="548" type="line"/>
      <point x="717" y="277" type="line"/>
      <point x="537" y="277" type="line"/>
    </contour>
    <contour>
      <point x="447" y="690" type="line"/>
      <point x="627" y="690" type="line"/>
      <point x="678" y="909" type="line"/>
      <point x="497" y="909" type="line"/>
    </contour>
  </outline>
</glyph>
<glyph name="dollar" format="1">
  <advance width="1264"/>
  <unicode hex="0024"/>
  <outline>
    <contour>
      <point x="1162" y="503" type="curve" smooth="yes"/>
      <point x="1162" y="153.451"/>
      <point x="902.991" y="-38"/>
      <point x="554" y="-38" type="curve"/>
      <point x="535" y="-154" type="line"/>
      <point x="429" y="-154" type="line"/>
      <point x="451" y="-25" type="line"/>
      <point x="312" y="-10"/>
      <point x="187" y="33"/>
      <point x="88" y="85" type="curve"/>
      <point x="169" y="352" type="line"/>
      <point x="239.5" y="303"/>
      <point x="444.633" y="241.491"/>
      <point x="497" y="238" type="curve"/>
      <point x="579" y="699" type="line"/>
      <point x="390.297" y="787.329"/>
      <point x="145" y="848.8"/>
      <point x="145" y="1126" type="curve" smooth="yes"/>
      <point x="145" y="1452.71"/>
      <point x="411.889" y="1590"/>
      <point x="736" y="1590" type="curve"/>
      <point x="765" y="1743" type="line"/>
      <point x="866" y="1743" type="line"/>
      <point x="836" y="1590" type="line"/>
      <point x="986" y="1590"/>
      <point x="1100" y="1533"/>
      <point x="1203" y="1484" type="curve"/>
      <point x="1095" y="1218" type="line"/>
      <point x="1040.5" y="1248"/>
      <point x="863.5" y="1323"/>
      <point x="790" y="1323" type="curve"/>
      <point x="728" y="967" type="line"/>
      <point x="917.948" y="876.229"/>
      <point x="1162" y="805.904"/>
    </contour>
    <contour>
      <point x="689" y="1329" type="line"/>
      <point x="551" y="1329"/>
      <point x="448" y="1301"/>
      <point x="448" y="1162" type="curve" smooth="yes"/>
      <point x="448" y="1069.29"/>
      <point x="556.57" y="1036.01"/>
      <point x="632" y="1007" type="curve"/>
    </contour>
    <contour>
      <point x="601" y="232" type="line"/>
      <point x="733" y="241"/>
      <point x="853" y="294"/>
      <point x="853" y="435" type="curve" smooth="yes"/>
      <point x="853" y="582"/>
      <point x="780" y="614"/>
      <point x="674" y="660" type="curve"/>
    </contour>
  </outline>
</glyph>
<glyph name="ampersand" format="1">
  <advance width="1603"/>
  <unicode hex="0026"/>
  <outline>
    <contour>
      <point x="902.053" y="1269.59" type="curve" smooth="yes"/>
      <point x="902.053" y="1365.8"/>
      <point x="834.337" y="1404"/>
      <point x="737" y="1404" type="curve" smooth="yes"/>
      <point x="616.631" y="1404"/>
      <point x="536.781" y="1351.23"/>
      <point x="536.781" y="1237.46" type="curve" smooth="yes"/>
      <point x="536.781" y="1152.32"/>
      <point x="587.5" y="1080"/>
      <point x="666" y="1027" type="curve"/>
      <point x="778.655" y="1064.55"/>
      <point x="902.053" y="1119.68"/>
    </contour>
    <contour>
      <point x="434" y="905" type="curve"/>
      <point x="354.741" y="984.259"/>
      <point x="266.404" y="1095.72"/>
      <point x="266.404" y="1253.6" type="curve" smooth="yes"/>
      <point x="266.404" y="1485.89"/>
      <point x="499.628" y="1624"/>
      <point x="745" y="1624" type="curve" smooth="yes"/>
      <point x="962.328" y="1624"/>
      <point x="1143.68" y="1533.98"/>
      <point x="1143.68" y="1320.62" type="curve" smooth="yes"/>
      <point x="1143.68" y="1079.72"/>
      <point x="1002.73" y="902.214"/>
      <point x="822" y="835" type="curve"/>
      <point x="1108" y="540" type="line"/>
      <point x="1135" y="661"/>
      <point x="1161" y="780"/>
      <point x="1186" y="902" type="curve"/>
      <point x="1444" y="896" type="line"/>
      <point x="1421" y="695"/>
      <point x="1370" y="509"/>
      <point x="1299" y="354" type="curve"/>
      <point x="1523" y="129" type="line"/>
      <point x="1370" y="-50" type="line"/>
      <point x="1168" y="152" type="line"/>
      <point x="1040.34" y="24.3384"/>
      <point x="865.079" y="-41"/>
      <point x="600" y="-41" type="curve" smooth="yes"/>
      <point x="282.913" y="-41"/>
      <point x="36.7071" y="68.6815"/>
      <point x="36.7071" y="385.514" type="curve" smooth="yes"/>
      <point x="36.7071" y="676.826"/>
      <point x="228.779" y="819.909"/>
    </contour>
    <contour>
      <point x="322.797" y="429.05" type="curve" smooth="yes"/>
      <point x="322.797" y="279.718"/>
      <point x="422.846" y="208"/>
      <point x="627" y="208" type="curve" smooth="yes"/>
      <point x="762.03" y="208"/>
      <point x="943.115" y="239.524"/>
      <point x="992" y="321" type="curve"/>
      <point x="603" y="721" type="line"/>
      <point x="448.569" y="681.903"/>
      <point x="322.797" y="600.772"/>
    </contour>
  </outline>
</glyph>
<glyph name="zero" format="1">
  <advance width="1313"/>
  <unicode hex="0030"/>
  <outline>
    <contour>
      <point x="386" y="516" type="curve" smooth="yes"/>
      <point x="386" y="353"/>
      <point x="439" y="225"/>
      <point x="604" y="225" type="curve" smooth="yes"/>
      <point x="840.158" y="225"/>
      <point x="909" y="465.65"/>
      <point x="909" y="701" type="curve" smooth="yes"/>
      <point x="909" y="870"/>
      <point x="844" y="975"/>
      <point x="686" y="975" type="curve" smooth="yes"/>
      <point x="458" y="975"/>
      <point x="386" y="744"/>
    </contour>
    <contour>
      <point x="577" y="-28" type="curve" smooth="yes"/>
      <point x="248" y="-28"/>
      <point x="87" y="175"/>
      <point x="87" y="504" type="curve" smooth="yes"/>
      <point x="87" y="921.084"/>
      <point x="300.766" y="1228"/>
      <point x="714" y="1228" type="curve" smooth="yes"/>
      <point x="1026.61" y="1228"/>
      <point x="1206" y="1052.79"/>
      <point x="1206" y="741" type="curve" smooth="yes"/>
      <point x="1206" y="305.019"/>
      <point x="1010.35" y="-28"/>
    </contour>
  </outline>
</glyph>
<glyph name="two" format="1">
  <advance width="1055"/>
  <unicode hex="0032"/>
  <outline>
    <contour>
      <point x="678" y="843" type="curve" smooth="yes"/>
      <point x="678" y="939"/>
      <point x="625" y="960"/>
      <point x="529" y="960" type="curve"/>
      <point x="434.044" y="953.394"/>
      <point x="312.5" y="920.4"/>
      <point x="199" y="856" type="curve"/>
      <point x="149" y="1088" type="line"/>
      <point x="244.5" y="1146.4"/>
      <point x="393.957" y="1213"/>
      <point x="586" y="1213" type="curve" smooth="yes"/>
      <point x="802.307" y="1213"/>
      <point x="977" y="1124.92"/>
      <point x="977" y="908" type="curve" smooth="yes"/>
      <point x="977" y="647.44"/>
      <point x="779.541" y="500.732"/>
      <point x="629" y="373" type="curve"/>
      <point x="493" y="261" type="line"/>
      <point x="861" y="261" type="line"/>
      <point x="825" y="0" type="line"/>
      <point x="20" y="0" type="line"/>
      <point x="48" y="213" type="line"/>
      <point x="396" y="493" type="line" smooth="yes"/>
      <point x="485.639" y="565.123"/>
      <point x="678" y="692.323"/>
    </contour>
  </outline>
</glyph>
<glyph name="three" format="1">
  <advance width="1037"/>
  <unicode hex="0033"/>
  <outline>
    <contour>
      <point x="582" y="253" type="curve" smooth="yes"/>
      <point x="582" y="394"/>
      <point x="474" y="434"/>
      <point x="320" y="436" type="curve"/>
      <point x="346" y="676" type="line"/>
      <point x="489.932" y="676"/>
      <point x="629" y="711.356"/>
      <point x="629" y="848" type="curve" smooth="yes"/>
      <point x="629" y="940"/>
      <point x="574" y="969"/>
      <point x="473" y="969" type="curve" smooth="yes"/>
      <point x="367" y="969"/>
      <point x="269" y="929"/>
      <point x="194" y="897" type="curve"/>
      <point x="117" y="1121" type="line"/>
      <point x="215" y="1170"/>
      <point x="331" y="1224"/>
      <point x="479" y="1224" type="curve" smooth="yes"/>
      <point x="711.426" y="1224"/>
      <point x="909" y="1143.07"/>
      <point x="909" y="909" type="curve" smooth="yes"/>
      <point x="909" y="726.809"/>
      <point x="822.962" y="587.409"/>
      <point x="677" y="557" type="curve"/>
      <point x="788.863" y="527.17"/>
      <point x="877" y="426.533"/>
      <point x="877" y="286" type="curve" smooth="yes"/>
      <point x="877" y="-20.8171"/>
      <point x="656.118" y="-182"/>
      <point x="344" y="-182" type="curve" smooth="yes"/>
      <point x="217" y="-182"/>
      <point x="103" y="-154"/>
      <point x="22" y="-109" type="curve"/>
      <point x="94" y="125" type="line"/>
      <point x="155.749" y="94.1255"/>
      <point x="277.166" y="71"/>
      <point x="363" y="71" type="curve" smooth="yes"/>
      <point x="497" y="71"/>
      <point x="582" y="125"/>
    </contour>
  </outline>
</glyph>
<glyph name="four" format="1">
  <advance width="1126"/>
  <unicode hex="0034"/>
  <outline>
    <contour>
      <point x="648" y="1179" type="line"/>
      <point x="951" y="1175" type="line"/>
      <point x="838" y="360" type="line"/>
      <point x="1002" y="360" type="line"/>
      <point x="967" y="110" type="line"/>
      <point x="802" y="110" type="line"/>
      <point x="772" y="-150" type="line"/>
      <point x="490" y="-153" type="line"/>
      <point x="528" y="110" type="line"/>
      <point x="15" y="110" type="line"/>
      <point x="15" y="356" type="line"/>
    </contour>
    <contour>
      <point x="327" y="358" type="line"/>
      <point x="562" y="358" type="line"/>
      <point x="651" y="805" type="line"/>
    </contour>
  </outline>
</glyph>
<glyph name="eight" format="1">
  <advance width="1214"/>
  <unicode hex="0038"/>
  <outline>
    <contour>
      <point x="799.182" y="927.637" type="curve" smooth="yes"/>
      <point x="799.182" y="1026.85"/>
      <point x="744.639" y="1066"/>
      <point x="641" y="1066" type="curve" smooth="yes"/>
      <point x="511.856" y="1066"/>
      <point x="446.826" y="997.171"/>
      <point x="446.826" y="872.332" type="curve" smooth="yes"/>
      <point x="446.826" y="766.239"/>
      <point x="502.063" y="691.119"/>
      <point x="605" y="688" type="curve"/>
      <point x="736.886" y="689.94"/>
      <point x="799.182" y="796.266"/>
    </contour>
    <contour>
      <point x="357.853" y="231.958" type="curve" smooth="yes"/>
      <point x="357.853" y="128.638"/>
      <point x="414.363" y="79"/>
      <point x="534" y="79" type="curve" smooth="yes"/>
      <point x="673.75" y="79"/>
      <point x="748.449" y="153.214"/>
      <point x="748.449" y="294.626" type="curve" smooth="yes"/>
      <point x="748.449" y="415.915"/>
      <point x="696.828" y="501.785"/>
      <point x="580" y="505" type="curve"/>
      <point x="435.616" y="501.098"/>
      <point x="357.853" y="377.278"/>
    </contour>
    <contour>
      <point x="378" y="589" type="curve"/>
      <point x="248.636" y="621.074"/>
      <point x="164.556" y="726.139"/>
      <point x="164.556" y="887.034" type="curve" smooth="yes"/>
      <point x="164.556" y="1155.66"/>
      <point x="385.947" y="1294"/>
      <point x="661" y="1294" type="curve" smooth="yes"/>
      <point x="892.42" y="1294"/>
      <point x="1086.04" y="1204.4"/>
      <point x="1086.04" y="975.532" type="curve" smooth="yes"/>
      <point x="1086.04" y="770.405"/>
      <point x="966.288" y="627.605"/>
      <point x="799" y="589" type="curve"/>
      <point x="943.804" y="562.289"/>
      <point x="1036.92" y="436.745"/>
      <point x="1036.92" y="264.047" type="curve" smooth="yes"/>
      <point x="1036.92" y="-13.8004"/>
      <point x="793.058" y="-167"/>
      <point x="506" y="-167" type="curve" smooth="yes"/>
      <point x="257.809" y="-167"/>
      <point x="54.9517" y="-46.7026"/>
      <point x="54.9517" y="193.708" type="curve" smooth="yes"/>
      <point x="54.9517" y="388.948"/>
      <point x="224.866" y="560.561"/>
    </contour>
  </outline>
</glyph>
<glyph name="nine" format="1">
  <advance width="1159"/>
  <unicode hex="0039"/>
  <outline>
    <contour>
      <point x="771.296" y="709.789" type="curve" smooth="yes"/>
      <point x="771.296" y="873.263"/>
      <point x="708.88" y="959"/>
      <point x="583" y="959" type="curve" smooth="yes"/>
      <point x="415" y="959"/>
      <point x="353" y="796"/>
      <point x="353" y="628" type="curve" smooth="yes"/>
      <point x="353" y="508.943"/>
      <point x="426.481" y="442.502"/>
      <point x="544.93" y="442.502" type="curve" smooth="yes"/>
      <point x="626.818" y="442.502"/>
      <point x="686.652" y="452.435"/>
      <point x="728" y="480" type="curve"/>
      <point x="745.436" y="506.39"/>
      <point x="771.296" y="614.799"/>
    </contour>
    <contour>
      <point x="70" y="625" type="curve" smooth="yes"/>
      <point x="70" y="957.667"/>
      <point x="257.984" y="1212"/>
      <point x="591" y="1212" type="curve" smooth="yes"/>
      <point x="906.165" y="1212"/>
      <point x="1065.72" y="1035.88"/>
      <point x="1065.72" y="719.293" type="curve" smooth="yes"/>
      <point x="1065.72" y="166.59"/>
      <point x="732.66" y="-213.663"/>
      <point x="231" y="-274" type="curve"/>
      <point x="188" y="-16" type="line"/>
      <point x="385" y="27"/>
      <point x="549" y="110"/>
      <point x="638" y="255" type="curve"/>
      <point x="591" y="234"/>
      <point x="538" y="223"/>
      <point x="481" y="223" type="curve" smooth="yes"/>
      <point x="233.588" y="223"/>
      <point x="70" y="377.975"/>
    </contour>
  </outline>
</glyph>
<glyph name="semicolon" format="1">
  <advance width="657"/>
  <unicode hex="003B"/>
  <outline>
    <contour>
      <point x="33" y="-1" type="line"/>
      <point x="92" y="421" type="line"/>
      <point x="480" y="421" type="line"/>
      <point x="429" y="58" type="line"/>
      <point x="403.93" y="-128.887"/>
      <point x="279" y="-289.074"/>
      <point x="128" y="-345" type="curve"/>
      <point x="50" y="-224" type="line"/>
      <point x="107.843" y="-204.719"/>
      <point x="208.502" y="-70.6515"/>
      <point x="218" y="-1" type="curve"/>
    </contour>
    <contour>
      <point x="135" y="737" type="line"/>
      <point x="194" y="1159" type="line"/>
      <point x="577" y="1159" type="line"/>
      <point x="517" y="737" type="line"/>
    </contour>
  </outline>
</glyph>
<glyph name="question" format="1">
  <advance width="1044"/>
  <unicode hex="003F"/>
  <outline>
    <contour>
      <point x="627" y="1622" type="curve" smooth="yes"/>
      <point x="881" y="1622"/>
      <point x="1065" y="1541"/>
      <point x="1065" y="1306" type="curve" smooth="yes"/>
      <point x="1065" y="970.368"/>
      <point x="825.255" y="813.055"/>
      <point x="576" y="720" type="curve"/>
      <point x="548" y="521" type="line"/>
      <point x="234" y="521" type="line"/>
      <point x="271" y="835" type="line"/>
      <point x="435.627" y="912.803"/>
      <point x="755" y="994.328"/>
      <point x="755" y="1230" type="curve" smooth="yes"/>
      <point x="755" y="1344"/>
      <point x="647" y="1357"/>
      <point x="531" y="1357" type="curve" smooth="yes"/>
      <point x="425" y="1357"/>
      <point x="328" y="1331"/>
      <point x="232" y="1304" type="curve"/>
      <point x="200" y="1541" type="line"/>
      <point x="309.497" y="1591.93"/>
      <point x="472.263" y="1622"/>
    </contour>
    <contour>
      <point x="545" y="-1" type="line"/>
      <point x="147" y="-1" type="line"/>
      <point x="206" y="421" type="line"/>
      <point x="606" y="421" type="line"/>
    </contour>
  </outline>
</glyph>
<glyph name="E" format="1">
  <advance width="1215"/>
  <unicode hex="0045"/>
  <outline>
    <contour>
      <point x="1029" y="0" type="line"/>
      <point x="64" y="0" type="line"/>
      <point x="291" y="1606" type="line"/>
      <point x="1238" y="1606" type="line"/>
      <point x="1203" y="1373" type="line"/>
      <point x="571" y="1373" type="line"/>
      <point x="511" y="955" type="line"/>
      <point x="1076" y="955" type="line"/>
      <point x="1045" y="729" type="line"/>
      <point x="477" y="729" type="line"/>
      <point x="404" y="229" type="line"/>
      <point x="1073" y="229" type="line"/>
    </contour>
  </outline>
</glyph>
<glyph name="F" format="1">
  <advance width="1209"/>
  <unicode hex="0046"/>
  <outline>
    <contour>
      <point x="484" y="728" type="line"/>
      <point x="373" y="0" type="line"/>
      <point x="59" y="0" type="line"/>
      <point x="296" y="1606" type="line"/>
      <point x="1283" y="1606" type="line"/>
      <point x="1246" y="1343" type="line"/>
      <point x="571" y="1343" type="line"/>
      <point x="517" y="955" type="line"/>
      <point x="1137" y="955" type="line"/>
      <point x="1103" y="728" type="line"/>
    </contour>
  </outline>
</glyph>
<glyph name="H" format="1">
  <advance width="1520"/>
  <unicode hex="0048"/>
  <outline>
    <contour>
      <point x="953" y="0" type="line"/>
      <point x="1062" y="724" type="line"/>
      <point x="480" y="724" type="line"/>
      <point x="373" y="0" type="line"/>
      <point x="57" y="0" type="line"/>
      <point x="297" y="1606" type="line"/>
      <point x="612" y="1606" type="line"/>
      <point x="514" y="951" type="line"/>
      <point x="1093" y="951" type="line"/>
      <point x="1193" y="1606" type="line"/>
      <point x="1504" y="1606" type="line"/>
      <point x="1264" y="0" type="line"/>
    </contour>
  </outline>
</glyph>
<glyph name="J" format="1">
  <advance width="749"/>
  <unicode hex="004A"/>
  <outline>
    <contour>
      <point x="-79" y="145" type="line"/>
      <point x="164.455" y="186.288"/>
      <point x="242.908" y="261.43"/>
      <point x="275" y="509" type="curve"/>
      <point x="428" y="1606" type="line"/>
      <point x="740" y="1606" type="line"/>
      <point x="592" y="546" type="line"/>
      <point x="538.576" y="154.795"/>
      <point x="394.632" y="-59.0815"/>
      <point x="-26" y="-88" type="curve"/>
    </contour>
  </outline>
</glyph>
<glyph name="L" format="1">
  <advance width="1119"/>
  <unicode hex="004C"/>
  <outline>
    <contour>
      <point x="993" y="0" type="line"/>
      <point x="65" y="0" type="line"/>
      <point x="291" y="1606" type="line"/>
      <point x="604" y="1606" type="line"/>
      <point x="410" y="229" type="line"/>
      <point x="1025" y="229" type="line"/>
    </contour>
  </outline>
</glyph>
<glyph name="M" format="1">
  <advance width="1822"/>
  <unicode hex="004D"/>
  <outline>
    <contour>
      <point x="677" y="0" type="line"/>
      <point x="514" y="1159" type="line"/>
      <point x="348" y="0" type="line"/>
      <point x="63" y="0" type="line"/>
      <point x="298" y="1606" type="line"/>
      <point x="685" y="1606" type="line"/>
      <point x="862" y="310" type="line"/>
      <point x="1398" y="1606" type="line"/>
      <point x="1786" y="1606" type="line"/>
      <point x="1574" y="0" type="line"/>
      <point x="1287" y="0" type="line"/>
      <point x="1451" y="1163" type="line"/>
      <point x="969" y="0" type="line"/>
    </contour>
  </outline>
</glyph>
<glyph name="N" format="1">
  <advance width="1568"/>
  <unicode hex="004E"/>
  <outline>
    <contour>
      <point x="1315" y="0" type="line"/>
      <point x="986" y="0" type="line"/>
      <point x="818" y="375"/>
      <point x="669" y="770"/>
      <point x="514" y="1158" type="curve"/>
      <point x="353" y="0" type="line"/>
      <point x="61" y="0" type="line"/>
      <point x="294" y="1606" type="line"/>
      <point x="631" y="1606" type="line"/>
      <point x="793" y="1225"/>
      <point x="947" y="836"/>
      <point x="1103" y="450" type="curve"/>
      <point x="1256" y="1606" type="line"/>
      <point x="1549" y="1606" type="line"/>
    </contour>
  </outline>
</glyph>
<glyph name="O" format="1">
  <advance width="1478"/>
  <unicode hex="004F"/>
  <outline>
    <contour>
      <point x="1419" y="979" type="curve" smooth="yes"/>
      <point x="1419" y="436.224"/>
      <point x="1175.71" y="-38"/>
      <point x="643" y="-38" type="curve" smooth="yes"/>
      <point x="267" y="-38"/>
      <point x="98" y="212"/>
      <point x="98" y="591" type="curve" smooth="yes"/>
      <point x="98" y="1141.65"/>
      <point x="347.088" y="1622.63"/>
      <point x="878" y="1629" type="curve"/>
      <point x="1249.77" y="1622.24"/>
      <point x="1419" y="1362.2"/>
    </contour>
    <contour>
      <point x="1100" y="973" type="curve"/>
      <point x="1100" y="1196"/>
      <point x="1046" y="1358"/>
      <point x="840" y="1358" type="curve" smooth="yes"/>
      <point x="519.356" y="1358"/>
      <point x="418" y="955.586"/>
      <point x="418" y="615" type="curve" smooth="yes"/>
      <point x="418" y="360"/>
      <point x="506" y="232"/>
      <point x="681" y="232" type="curve" smooth="yes"/>
      <point x="1004.91" y="232"/>
      <point x="1098.39" y="639.012"/>
    </contour>
  </outline>
</glyph>
<glyph name="P" format="1">
  <advance width="1299"/>
  <unicode hex="0050"/>
  <outline>
    <contour>
      <point x="1025" y="1151" type="curve" smooth="yes"/>
      <point x="1025" y="1338"/>
      <point x="863" y="1373"/>
      <point x="668" y="1373" type="curve" smooth="yes"/>
      <point x="575" y="1373" type="line"/>
      <point x="498" y="803" type="line"/>
      <point x="562" y="803" type="line" smooth="yes"/>
      <point x="841" y="803"/>
      <point x="1025" y="890"/>
    </contour>
    <contour>
      <point x="704" y="1606" type="line" smooth="yes"/>
      <point x="1055" y="1606"/>
      <point x="1330" y="1529"/>
      <point x="1327" y="1185" type="curve"/>
      <point x="1321.38" y="712.847"/>
      <point x="1008.3" y="600"/>
      <point x="525" y="600" type="curve" smooth="yes"/>
      <point x="460" y="600" type="line"/>
      <point x="372" y="0" type="line"/>
      <point x="58" y="0" type="line"/>
      <point x="297" y="1606" type="line"/>
    </contour>
  </outline>
</glyph>
<glyph name="Q" format="1">
  <advance width="1486"/>
  <unicode hex="0051"/>
  <outline>
    <contour>
      <point x="420" y="568" type="curve"/>
      <point x="424" y="362"/>
      <point x="492" y="231"/>
      <point x="686" y="231" type="curve" smooth="yes"/>
      <point x="1013.28" y="231"/>
      <point x="1113" y="621.03"/>
      <point x="1113" y="985" type="curve" smooth="yes"/>
      <point x="1113" y="1232"/>
      <point x="1024" y="1356"/>
      <point x="846" y="1356" type="curve" smooth="yes"/>
      <point x="513.953" y="1356"/>
      <point x="408.161" y="911.336"/>
    </contour>
    <contour>
      <point x="1429" y="1005" type="curve"/>
      <point x="1429" y="516.489"/>
      <point x="1241.18" y="121.603"/>
      <point x="862" y="6" type="curve"/>
      <point x="1117" y="-273" type="line"/>
      <point x="941" y="-428" type="line"/>
      <point x="582" y="-29" type="line"/>
      <point x="263" y="12"/>
      <point x="96" y="214"/>
      <point x="96" y="578" type="curve" smooth="yes"/>
      <point x="96" y="1127.51"/>
      <point x="332.54" y="1629"/>
      <point x="883" y="1629" type="curve" smooth="yes"/>
      <point x="1257.34" y="1629"/>
      <point x="1425.65" y="1384.06"/>
    </contour>
  </outline>
</glyph>
<glyph name="R" format="1">
  <advance width="1409"/>
  <unicode hex="0052"/>
  <outline>
    <contour>
      <point x="598" y="909" type="line" smooth="yes"/>
      <point x="855" y="909"/>
      <point x="1060" y="965"/>
      <point x="1063" y="1196" type="curve" smooth="yes"/>
      <point x="1066" y="1374"/>
      <point x="896" y="1373"/>
      <point x="713" y="1373" type="curve" smooth="yes"/>
      <point x="580" y="1373" type="line"/>
      <point x="511" y="909" type="line"/>
    </contour>
    <contour>
      <point x="749.615" y="717" type="line"/>
      <point x="482" y="717" type="line"/>
      <point x="369" y="0" type="line"/>
      <point x="56" y="0" type="line"/>
      <point x="299" y="1606" type="line"/>
      <point x="674" y="1606" type="line" smooth="yes"/>
      <point x="1048.17" y="1606"/>
      <point x="1365.92" y="1591.74"/>
      <point x="1361" y="1257" type="curve" smooth="yes"/>
      <point x="1357.52" y="1016.58"/>
      <point x="1232.85" y="839.765"/>
      <point x="1035.66" y="787.085" type="curve"/>
      <point x="1174" y="0" type="line"/>
      <point x="865" y="0" type="line"/>
    </contour>
  </outline>
</glyph>
<glyph name="V" format="1">
  <advance width="1281"/>
  <unicode hex="0056"/>
  <outline>
    <contour>
      <point x="437" y="1606" type="line"/>
      <point x="589" y="393" type="line"/>
      <point x="1105" y="1606" type="line"/>
      <point x="1412" y="1606" type="line"/>
      <point x="720" y="0" type="line"/>
      <point x="353" y="0" type="line"/>
      <point x="144" y="1606" type="line"/>
    </contour>
  </outline>
</glyph>
<glyph name="X" format="1">
  <advance width="1301"/>
  <unicode hex="0058"/>
  <outline>
    <contour>
      <point x="850" y="804" type="line"/>
      <point x="1197" y="0" type="line"/>
      <point x="844" y="0" type="line"/>
      <point x="633" y="516" type="line"/>
      <point x="272" y="0" type="line"/>
      <point x="-80" y="0" type="line"/>
      <point x="494" y="804" type="line"/>
      <point x="145" y="1606" type="line"/>
      <point x="500" y="1606" type="line"/>
      <point x="709" y="1083" type="line"/>
      <point x="1071" y="1606" type="line"/>
      <point x="1426" y="1606" type="line"/>
    </contour>
  </outline>
</glyph>
<glyph name="Z" format="1">
  <advance width="1208"/>
  <unicode hex="005A"/>
  <outline>
    <contour>
      <point x="1259" y="1606" type="line"/>
      <point x="1226" y="1378" type="line"/>
      <point x="385" y="232" type="line"/>
      <point x="1063" y="232" type="line"/>
      <point x="1037" y="0" type="line"/>
      <point x="-6" y="0" type="line"/>
      <point x="27" y="246" type="line"/>
      <point x="865" y="1372" type="line"/>
      <point x="190" y="1372" type="line"/>
      <point x="217" y="1606" type="line"/>
    </contour>
  </outline>
</glyph>
<glyph name="bracketright" format="1">
  <advance width="940"/>
  <unicode hex="005D"/>
  <outline>
    <contour>
      <point x="217" y="1565" type="line"/>
      <point x="918" y="1565" type="line"/>
      <point x="698" y="0" type="line"/>
      <point x="-3" y="0" type="line"/>
      <point x="32" y="255" type="line"/>
      <point x="432" y="255" type="line"/>
      <point x="580" y="1309" type="line"/>
      <point x="181" y="1309" type="line"/>
    </contour>
  </outline>
</glyph>
<glyph name="a" format="1">
  <advance width="1173"/>
  <unicode hex="0061"/>
  <outline>
    <contour>
      <point x="392" y="-17" type="curve" smooth="yes"/>
      <point x="142" y="-17"/>
      <point x="36" y="152"/>
      <point x="39" y="404" type="curve" smooth="yes"/>
      <point x="42.3943" y="760.403"/>
      <point x="272.802" y="1145"/>
      <point x="629" y="1145" type="curve" smooth="yes"/>
      <point x="826.865" y="1145"/>
      <point x="978.059" y="1080.89"/>
      <point x="1097" y="1006" type="curve"/>
      <point x="949" y="0" type="line"/>
      <point x="728" y="0" type="line"/>
      <point x="690" y="171" type="line"/>
      <point x="644" y="65"/>
      <point x="544" y="-17"/>
    </contour>
    <contour>
      <point x="778" y="904" type="line"/>
      <point x="746" y="914"/>
      <point x="699" y="921"/>
      <point x="656" y="921" type="curve" smooth="yes"/>
      <point x="458.311" y="921"/>
      <point x="346.524" y="641.718"/>
      <point x="345" y="436" type="curve" smooth="yes"/>
      <point x="345" y="308"/>
      <point x="375" y="211"/>
      <point x="489" y="211" type="curve" smooth="yes"/>
      <point x="580" y="211"/>
      <point x="646" y="242"/>
      <point x="686" y="293" type="curve"/>
    </contour>
  </outline>
</glyph>
<glyph name="c" format="1">
  <advance width="983"/>
  <unicode hex="0063"/>
  <outline>
    <contour>
      <point x="827" y="88" type="line"/>
      <point x="722" y="28"/>
      <point x="616" y="-14"/>
      <point x="455" y="-17" type="curve"/>
      <point x="250" y="-15"/>
      <point x="124" y="91"/>
      <point x="71" y="248" type="curve" smooth="yes"/>
      <point x="-79.0537" y="692.159"/>
      <point x="257.371" y="1145"/>
      <point x="650" y="1145" type="curve" smooth="yes"/>
      <point x="805" y="1145"/>
      <point x="895" y="1104"/>
      <point x="988" y="1043" type="curve"/>
      <point x="899" y="834" type="line"/>
      <point x="853.969" y="875"/>
      <point x="750.85" y="916"/>
      <point x="666" y="916" type="curve" smooth="yes"/>
      <point x="430.124" y="916"/>
      <point x="352" y="698.898"/>
      <point x="352" y="464" type="curve"/>
      <point x="348" y="297"/>
      <point x="420" y="213"/>
      <point x="568" y="213" type="curve" smooth="yes"/>
      <point x="673.125" y="213"/>
      <point x="744.166" y="261.343"/>
      <point x="807" y="302" type="curve"/>
    </contour>
  </outline>
</glyph>
<glyph name="d" format="1">
  <advance width="1186"/>
  <unicode hex="0064"/>
  <outline>
    <contour>
      <point x="395" y="-17" type="curve" smooth="yes"/>
      <point x="145" y="-17"/>
      <point x="51" y="158"/>
      <point x="51" y="408" type="curve"/>
      <point x="47.0017" y="765.177"/>
      <point x="201.418" y="1142.1"/>
      <point x="550" y="1145" type="curve"/>
      <point x="678" y="1144"/>
      <point x="759" y="1086"/>
      <point x="800" y="995" type="curve"/>
      <point x="891" y="1618" type="line"/>
      <point x="1202" y="1668" type="line"/>
      <point x="960" y="0" type="line"/>
      <point x="742" y="0" type="line"/>
      <point x="704" y="169" type="line"/>
      <point x="654" y="63"/>
      <point x="550" y="-17"/>
    </contour>
    <contour>
      <point x="775" y="820" type="curve"/>
      <point x="733" y="872"/>
      <point x="667" y="917"/>
      <point x="576" y="917" type="curve" smooth="yes"/>
      <point x="411" y="917"/>
      <point x="383" y="697"/>
      <point x="364" y="551" type="curve"/>
      <point x="339" y="399"/>
      <point x="351" y="212"/>
      <point x="498" y="212" type="curve" smooth="yes"/>
      <point x="590" y="212"/>
      <point x="658" y="243"/>
      <point x="699" y="294" type="curve"/>
      <point x="724" y="473"/>
      <point x="751" y="643"/>
    </contour>
  </outline>
</glyph>
<glyph name="e" format="1">
  <advance width="1091"/>
  <unicode hex="0065"/>
  <outline>
    <contour>
      <point x="393" y="653" type="curve"/>
      <point x="499" y="655"/>
      <point x="585" y="659"/>
      <point x="666" y="674" type="curve" smooth="yes"/>
      <point x="717.465" y="683.357"/>
      <point x="782" y="692.701"/>
      <point x="782" y="745" type="curve" smooth="yes"/>
      <point x="782" y="871.023"/>
      <point x="731.782" y="935.012"/>
      <point x="631.345" y="935.012" type="curve" smooth="yes"/>
      <point x="629" y="935" type="line" smooth="yes"/>
      <point x="476" y="935"/>
      <point x="413" y="788"/>
    </contour>
    <contour>
      <point x="596" y="199" type="curve" smooth="yes"/>
      <point x="720" y="199"/>
      <point x="810" y="238"/>
      <point x="889" y="292" type="curve"/>
      <point x="922" y="78" type="line"/>
      <point x="797" y="15"/>
      <point x="669" y="-16"/>
      <point x="540" y="-17" type="curve"/>
      <point x="242.273" y="-14.4223"/>
      <point x="44" y="128.535"/>
      <point x="44" y="428" type="curve" smooth="yes"/>
      <point x="44" y="826.457"/>
      <point x="267.422" y="1145.16"/>
      <point x="661.225" y="1145.16" type="curve" smooth="yes"/>
      <point x="916.451" y="1145.16"/>
      <point x="1039" y="1001.08"/>
      <point x="1039" y="749" type="curve" smooth="yes"/>
      <point x="1039" y="579.984"/>
      <point x="814.925" y="534.796"/>
      <point x="651" y="511" type="curve" smooth="yes"/>
      <point x="575" y="500"/>
      <point x="482" y="494"/>
      <point x="371" y="493" type="curve"/>
      <point x="369" y="474"/>
      <point x="367" y="456"/>
      <point x="367" y="436" type="curve" smooth="yes"/>
      <point x="367" y="289"/>
      <point x="449" y="199"/>
    </contour>
  </outline>
</glyph>
<glyph name="g" format="1">
  <advance width="1174"/>
  <unicode hex="0067"/>
  <outline>
    <contour>
      <point x="516" y="569" type="curve"/>
      <point x="638" y="600"/>
      <point x="731" y="651"/>
      <point x="731" y="796" type="curve" smooth="yes"/>
      <point x="731" y="885"/>
      <point x="681" y="930"/>
      <point x="581" y="930" type="curve" smooth="yes"/>
      <point x="454.797" y="930"/>
      <point x="414" y="888.136"/>
      <point x="414" y="764" type="curve" smooth="yes"/>
      <point x="414" y="694.148"/>
      <point x="474.354" y="599.077"/>
    </contour>
    <contour>
      <point x="475" y="-328" type="curve" smooth="yes"/>
      <point x="622" y="-328"/>
      <point x="728" y="-303"/>
      <point x="728" y="-158" type="curve" smooth="yes"/>
      <point x="728" y="-56.3774"/>
      <point x="621.777" y="-27.174"/>
      <point x="531" y="-10" type="curve" smooth="yes"/>
      <point x="362" y="21" type="line"/>
      <point x="305.932" y="-26.9129"/>
      <point x="200" y="-113.483"/>
      <point x="200" y="-209" type="curve" smooth="yes"/>
      <point x="200" y="-323"/>
      <point x="353" y="-328"/>
    </contour>
    <contour>
      <point x="315" y="500" type="line"/>
      <point x="218.913" y="548.72"/>
      <point x="132.318" y="657.13"/>
      <point x="132.318" y="798.847" type="curve" smooth="yes"/>
      <point x="132.318" y="1011.08"/>
      <point x="362.013" y="1145"/>
      <point x="589" y="1145" type="curve" smooth="yes"/>
      <point x="718" y="1145"/>
      <point x="808" y="1125"/>
      <point x="859" y="1084" type="curve"/>
      <point x="942" y="1123"/>
      <point x="1027" y="1142"/>
      <point x="1116" y="1143" type="curve"/>
      <point x="1153" y="1147"/>
      <point x="1188" y="1150"/>
      <point x="1226" y="1153" type="curve"/>
      <point x="1199" y="928" type="line"/>
      <point x="975" y="928" type="line"/>
      <point x="988" y="892"/>
      <point x="1002" y="845"/>
      <point x="1002" y="796" type="curve" smooth="yes"/>
      <point x="1000" y="597"/>
      <point x="901" y="506"/>
      <point x="760" y="440" type="curve" smooth="yes"/>
      <point x="705" y="414"/>
      <point x="639" y="390"/>
      <point x="562" y="367" type="curve" smooth="yes"/>
      <point x="363" y="308" type="line" smooth="yes"/>
      <point x="328" y="298"/>
      <point x="298" y="287"/>
      <point x="267" y="273" type="curve"/>
      <point x="354" y="244"/>
      <point x="465" y="225"/>
      <point x="562" y="206" type="curve" smooth="yes"/>
      <point x="775.165" y="163.367"/>
      <point x="1013.97" y="97.6896"/>
      <point x="1021" y="-139" type="curve"/>
      <point x="1021" y="-438.069"/>
      <point x="759.339" y="-541"/>
      <point x="445" y="-541" type="curve" smooth="yes"/>
      <point x="221.822" y="-541"/>
      <point x="-57" y="-490.811"/>
      <point x="-57" y="-283" type="curve" smooth="yes"/>
      <point x="-57" y="-164"/>
      <point x="-27" y="-91"/>
      <point x="35" y="-34" type="curve"/>
      <point x="76" y="7"/>
      <point x="124" y="51"/>
      <point x="164" y="91" type="curve"/>
      <point x="164" y="91"/>
      <point x="31.4528" y="193.949"/>
      <point x="31.4528" y="267.115" type="curve" smooth="yes"/>
      <point x="31.4528" y="392.023"/>
      <point x="129.116" y="443.653"/>
      <point x="234" y="472" type="curve"/>
    </contour>
  </outline>
</glyph>
<glyph name="i" format="1">
  <advance width="559"/>
  <unicode hex="0069"/>
  <outline>
    <contour>
      <point x="434" y="1670" type="curve" smooth="yes"/>
      <point x="520" y="1670"/>
      <point x="576" y="1606"/>
      <point x="576" y="1520" type="curve" smooth="yes"/>
      <point x="576" y="1406.34"/>
      <point x="492.53" y="1312"/>
      <point x="381" y="1312" type="curve" smooth="yes"/>
      <point x="297" y="1312"/>
      <point x="237" y="1375"/>
      <point x="240" y="1461" type="curve"/>
      <point x="240" y="1571.11"/>
      <point x="324.827" y="1670"/>
    </contour>
    <contour>
      <point x="333" y="0" type="line"/>
      <point x="28" y="0" type="line"/>
      <point x="192" y="1127" type="line"/>
      <point x="497" y="1127" type="line"/>
    </contour>
  </outline>
</glyph>
<glyph name="o" format="1">
  <advance width="1165"/>
  <unicode hex="006F"/>
  <outline>
    <contour>
      <point x="488" y="-17" type="curve" smooth="yes"/>
      <point x="192.864" y="-17"/>
      <point x="49.8503" y="154.584"/>
      <point x="49.8503" y="450.31" type="curve" smooth="yes"/>
      <point x="49.8503" y="837.888"/>
      <point x="252.311" y="1145"/>
      <point x="645" y="1145" type="curve" smooth="yes"/>
      <point x="939" y="1145"/>
      <point x="1079" y="977"/>
      <point x="1082" y="686" type="curve"/>
      <point x="1082" y="294.225"/>
      <point x="881.808" y="-17"/>
    </contour>
    <contour>
      <point x="351.54" y="466.958" type="curve" smooth="yes"/>
      <point x="351.54" y="321.227"/>
      <point x="381.318" y="211"/>
      <point x="519" y="211" type="curve" smooth="yes"/>
      <point x="719.779" y="211"/>
      <point x="781.035" y="478.543"/>
      <point x="781.035" y="687.348" type="curve" smooth="yes"/>
      <point x="781.035" y="824.704"/>
      <point x="744.56" y="916"/>
      <point x="615" y="916" type="curve" smooth="yes"/>
      <point x="415.949" y="916"/>
      <point x="351.54" y="672"/>
    </contour>
  </outline>
</glyph>
<glyph name="x" format="1">
  <advance width="1028"/>
  <unicode hex="0078"/>
  <outline>
    <contour>
      <point x="468" y="341" type="line"/>
      <point x="249" y="0" type="line"/>
      <point x="-59" y="0" type="line"/>
      <point x="347" y="567" type="line"/>
      <point x="85" y="1127" type="line"/>
      <point x="398" y="1127" type="line"/>
      <point x="531" y="804" type="line"/>
      <point x="751" y="1127" type="line"/>
      <point x="1059" y="1127" type="line"/>
      <point x="652" y="567" type="line"/>
      <point x="904" y="0" type="line"/>
      <point x="601" y="0" type="line"/>
    </contour>
  </outline>
</glyph>
<glyph name="bar" format="1">
  <advance width="677"/>
  <unicode hex="007C"/>
  <outline>
    <contour>
      <point x="212" y="-122" type="line"/>
      <point x="223" y="1713" type="line"/>
      <point x="502" y="1713" type="line"/>
      <point x="492" y="-122" type="line"/>
    </contour>
  </outline>
</glyph>
<glyph name="sterling" format="1">
  <advance width="1079"/>
  <unicode hex="00A3"/>
  <outline>
    <contour>
      <point x="443.784" y="899.788" type="curve" smooth="yes"/>
      <point x="443.784" y="818.588"/>
      <point x="469.486" y="741.087"/>
      <point x="497" y="685" type="curve"/>
      <point x="897" y="685" type="line"/>
      <point x="885" y="574" type="line"/>
      <point x="503" y="574" type="line"/>
      <point x="486" y="422"/>
      <point x="421" y="300"/>
      <point x="330" y="227" type="curve"/>
      <point x="902" y="227" type="line"/>
      <point x="878" y="0" type="line"/>
      <point x="60" y="0" type="line"/>
      <point x="81" y="222" type="line"/>
      <point x="162.493" y="319.265"/>
      <point x="239.106" y="408.84"/>
      <point x="257" y="575" type="curve"/>
      <point x="214" y="575"/>
      <point x="173" y="574"/>
      <point x="130" y="574" type="curve"/>
      <point x="142" y="681" type="line"/>
      <point x="245" y="681" type="line"/>
      <point x="204.332" y="752.17"/>
      <point x="169.168" y="834.349"/>
      <point x="169.168" y="931.365" type="curve" smooth="yes"/>
      <point x="169.168" y="1196.17"/>
      <point x="374.458" y="1345"/>
      <point x="643" y="1345" type="curve" smooth="yes"/>
      <point x="821.241" y="1345"/>
      <point x="950.513" y="1290.27"/>
      <point x="1043" y="1211" type="curve"/>
      <point x="902" y="997" type="line"/>
      <point x="835.922" y="1039.95"/>
      <point x="770.911" y="1092"/>
      <point x="654" y="1092" type="curve" smooth="yes"/>
      <point x="524.845" y="1092"/>
      <point x="443.784" y="1029.76"/>
    </contour>
  </outline>
</glyph>
<glyph name="section" format="1">
  <advance width="1066"/>
  <unicode hex="00A7"/>
  <outline>
    <contour>
      <point x="345" y="1022" type="curve"/>
      <point x="236.566" y="1065.16"/>
      <point x="186.699" y="1138.02"/>
      <point x="186.699" y="1252.87" type="curve" smooth="yes"/>
      <point x="186.699" y="1488.36"/>
      <point x="383.271" y="1606"/>
      <point x="622" y="1606" type="curve" smooth="yes"/>
      <point x="799.131" y="1606"/>
      <point x="918.836" y="1522.3"/>
      <point x="1002" y="1451" type="curve"/>
      <point x="897" y="1251" type="line"/>
      <point x="834.449" y="1307.65"/>
      <point x="721.09" y="1372"/>
      <point x="608" y="1372" type="curve" smooth="yes"/>
      <point x="503.819" y="1372"/>
      <point x="419.923" y="1348.82"/>
      <point x="419.923" y="1259.73" type="curve" smooth="yes"/>
      <point x="419.923" y="1208.68"/>
      <point x="473.298" y="1195.14"/>
      <point x="528" y="1173" type="curve" smooth="yes"/>
      <point x="669" y="1116" type="line" smooth="yes"/>
      <point x="809.437" y="1059.83"/>
      <point x="966.08" y="999.679"/>
      <point x="966.08" y="816.132" type="curve" smooth="yes"/>
      <point x="966.08" y="653.302"/>
      <point x="884.68" y="551.362"/>
      <point x="756" y="516" type="curve"/>
      <point x="855" y="470"/>
      <point x="906" y="393"/>
      <point x="910" y="284" type="curve"/>
      <point x="910" y="9"/>
      <point x="720" y="-107"/>
      <point x="443" y="-110" type="curve"/>
      <point x="278.773" y="-110"/>
      <point x="128.357" y="-49.2398"/>
      <point x="52" y="41" type="curve"/>
      <point x="160" y="252" type="line"/>
      <point x="210.836" y="208.3"/>
      <point x="306.347" y="123"/>
      <point x="447" y="123" type="curve" smooth="yes"/>
      <point x="563.218" y="123"/>
      <point x="664.175" y="156.382"/>
      <point x="664.175" y="265.064" type="curve" smooth="yes"/>
      <point x="664.175" y="347.138"/>
      <point x="598.751" y="367.927"/>
      <point x="537" y="392" type="curve" smooth="yes"/>
      <point x="391" y="447" type="line"/>
      <point x="255.708" y="494.75"/>
      <point x="128.797" y="549.29"/>
      <point x="128.797" y="723.522" type="curve" smooth="yes"/>
      <point x="128.797" y="884.058"/>
      <point x="215.6" y="991.839"/>
    </contour>
    <contour>
      <point x="362.921" y="751.398" type="curve" smooth="yes"/>
      <point x="362.921" y="685.045"/>
      <point x="415.741" y="655"/>
      <point x="530" y="655" type="curve" smooth="yes"/>
      <point x="639.159" y="655"/>
      <point x="726.074" y="683.046"/>
      <point x="726.074" y="777.18" type="curve" smooth="yes"/>
      <point x="726.074" y="859.85"/>
      <point x="652.517" y="872"/>
      <point x="555" y="872" type="curve" smooth="yes"/>
      <point x="444.965" y="872"/>
      <point x="362.921" y="850.765"/>
    </contour>
  </outline>
</glyph>
<glyph name="cedilla" format="1">
  <advance width="399"/>
  <unicode hex="00B8"/>
  <outline>
    <contour>
      <point x="268.135" y="-339.502" type="curve" smooth="yes"/>
      <point x="268.135" y="-224.681"/>
      <point x="164.032" y="-195"/>
      <point x="35" y="-195" type="curve"/>
      <point x="84" y="73" type="line"/>
      <point x="199" y="73" type="line"/>
      <point x="184" y="12"/>
      <point x="171" y="-45"/>
      <point x="157" y="-105" type="curve"/>
      <point x="321.319" y="-105"/>
      <point x="445" y="-178.744"/>
      <point x="445" y="-347" type="curve"/>
      <point x="429" y="-523"/>
      <point x="332" y="-620"/>
      <point x="144" y="-620" type="curve" smooth="yes"/>
      <point x="66" y="-620"/>
      <point x="0" y="-598"/>
      <point x="-47" y="-567" type="curve"/>
      <point x="-50" y="-561" type="line"/>
      <point x="-36" y="-428" type="line"/>
      <point x="5" y="-449"/>
      <point x="54" y="-472"/>
      <point x="120" y="-472" type="curve" smooth="yes"/>
      <point x="220.887" y="-472"/>
      <point x="268.135" y="-440.005"/>
    </contour>
  </outline>
</glyph>
<glyph name="uni00B9" format="1">
  <advance width="598"/>
  <unicode hex="00B9"/>
  <outline>
    <contour>
      <point x="229" y="635" type="line"/>
      <point x="339" y="1407" type="line"/>
      <point x="203" y="1357" type="line"/>
      <point x="161" y="1545" type="line"/>
      <point x="365" y="1621" type="line"/>
      <point x="608" y="1621" type="line"/>
      <point x="471" y="635" type="line"/>
    </contour>
  </outline>
</glyph>
<glyph name="ordmasculine" format="1">
  <advance width="998"/>
  <unicode hex="00BA"/>
  <outline>
    <contour>
      <point x="503" y="670" type="curve" smooth="yes"/>
      <point x="277" y="670"/>
      <point x="169" y="818"/>
      <point x="169" y="1045" type="curve" smooth="yes"/>
      <point x="169" y="1358.54"/>
      <point x="323.477" y="1638"/>
      <point x="639" y="1638" type="curve" smooth="yes"/>
      <point x="866" y="1638"/>
      <point x="974" y="1485"/>
      <point x="974" y="1258" type="curve" smooth="yes"/>
      <point x="974" y="946.224"/>
      <point x="817.669" y="670"/>
    </contour>
    <contour>
      <point x="798" y="1253" type="curve" smooth="yes"/>
      <point x="798" y="1389.69"/>
      <point x="750.105" y="1519"/>
      <point x="619" y="1519" type="curve" smooth="yes"/>
      <point x="422.176" y="1519"/>
      <point x="336" y="1278.81"/>
      <point x="336" y="1069" type="curve" smooth="yes"/>
      <point x="336" y="928.512"/>
      <point x="386.016" y="795"/>
      <point x="522" y="795" type="curve" smooth="yes"/>
      <point x="721.598" y="795"/>
      <point x="798" y="1040.17"/>
    </contour>
    <contour>
      <point x="166" y="515" type="line"/>
      <point x="802" y="515" type="line"/>
      <point x="784" y="386" type="line"/>
      <point x="147" y="386" type="line"/>
    </contour>
  </outline>
</glyph>
<glyph name="guillemotright" format="1">
  <advance width="1644"/>
  <unicode hex="00BB"/>
  <outline>
    <contour>
      <point x="879" y="875" type="line"/>
      <point x="925" y="1198" type="line"/>
      <point x="1600" y="697" type="line"/>
      <point x="1565" y="464" type="line"/>
      <point x="752" y="-37" type="line"/>
      <point x="797" y="292" type="line"/>
      <point x="1300" y="590" type="line"/>
    </contour>
    <contour>
      <point x="137" y="875" type="line"/>
      <point x="182" y="1198" type="line"/>
      <point x="857" y="697" type="line"/>
      <point x="823" y="464" type="line"/>
      <point x="9" y="-37" type="line"/>
      <point x="54" y="292" type="line"/>
      <point x="556" y="590" type="line"/>
    </contour>
  </outline>
</glyph>
<glyph name="threequarters" format="1">
  <advance width="916"/>
  <unicode hex="00BE"/>
  <outline>
    <contour>
      <point x="612" y="1142" type="curve"/>
      <point x="733" y="1116"/>
      <point x="834" y="1047"/>
      <point x="834" y="897" type="curve" smooth="yes"/>
      <point x="834" y="650.613"/>
      <point x="614.087" y="540"/>
      <point x="370" y="540" type="curve" smooth="yes"/>
      <point x="245" y="540"/>
      <point x="150" y="576"/>
      <point x="69" y="618" type="curve"/>
      <point x="145" y="745" type="line"/>
      <point x="217" y="707"/>
      <point x="300" y="672"/>
      <point x="411" y="672" type="curve" smooth="yes"/>
      <point x="556.65" y="672"/>
      <point x="671" y="754.782"/>
      <point x="671" y="899" type="curve" smooth="yes"/>
      <point x="671" y="1019"/>
      <point x="572" y="1058"/>
      <point x="447" y="1072" type="curve"/>
      <point x="473" y="1207" type="line"/>
      <point x="615.226" y="1207"/>
      <point x="754" y="1275.82"/>
      <point x="754" y="1418" type="curve" smooth="yes"/>
      <point x="754" y="1515"/>
      <point x="668" y="1541"/>
      <point x="557" y="1541" type="curve" smooth="yes"/>
      <point x="465" y="1541"/>
      <point x="377" y="1515"/>
      <point x="312" y="1484" type="curve"/>
      <point x="289" y="1611" type="line"/>
      <point x="354" y="1638"/>
      <point x="472.983" y="1677"/>
      <point x="588" y="1677" type="curve" smooth="yes"/>
      <point x="752.155" y="1677"/>
      <point x="912" y="1616.31"/>
      <point x="912" y="1451" type="curve" smooth="yes"/>
      <point x="912" y="1303"/>
      <point x="826" y="1217"/>
      <point x="724" y="1171" type="curve" smooth="yes"/>
      <point x="691" y="1156"/>
      <point x="651" y="1142"/>
    </contour>
  </outline>
</glyph>
<glyph name="questiondown" format="1">
  <advance width="1045"/>
  <unicode hex="00BF"/>
  <outline>
    <contour>
      <point x="331.77" y="380.509" type="curve" smooth="yes"/>
      <point x="331.77" y="257.014"/>
      <point x="433.135" y="243"/>
      <point x="556" y="243" type="curve" smooth="yes"/>
      <point x="662" y="243"/>
      <point x="758" y="269"/>
      <point x="854" y="296" type="curve"/>
      <point x="887" y="59" type="line"/>
      <point x="777.168" y="7.91516"/>
      <point x="614.31" y="-23"/>
      <point x="459" y="-23" type="curve" smooth="yes"/>
      <point x="192.741" y="-23"/>
      <point x="21.7331" y="63.541"/>
      <point x="21.7331" y="312.406" type="curve" smooth="yes"/>
      <point x="21.7331" y="633.686"/>
      <point x="268.899" y="787.819"/>
      <point x="511" y="879" type="curve"/>
      <point x="538" y="1107" type="line"/>
      <point x="851" y="1107" type="line"/>
      <point x="816" y="765" type="line"/>
      <point x="659.025" y="685.956"/>
      <point x="331.77" y="608.036"/>
    </contour>
    <contour>
      <point x="741" y="1505" type="curve"/>
      <point x="826" y="1505"/>
      <point x="889" y="1453"/>
      <point x="903" y="1381" type="curve"/>
      <point x="903" y="1276.05"/>
      <point x="826.69" y="1198.09"/>
      <point x="734" y="1186" type="curve"/>
      <point x="649" y="1186"/>
      <point x="584" y="1237"/>
      <point x="573" y="1311" type="curve"/>
      <point x="570.479" y="1415.6"/>
      <point x="649.061" y="1492.46"/>
    </contour>
  </outline>
</glyph>
<glyph name="AE" format="1">
  <advance width="1798"/>
  <unicode hex="00C6"/>
  <outline>
    <contour>
      <point x="1125" y="961" type="line"/>
      <point x="1669" y="961" type="line"/>
      <point x="1644" y="728" type="line"/>
      <point x="1102" y="728" type="line"/>
      <point x="1049" y="260" type="line"/>
      <point x="1658" y="260" type="line"/>
      <point x="1631" y="0" type="line"/>
      <point x="741" y="0" type="line"/>
      <point x="778" y="349" type="line"/>
      <point x="411" y="349" type="line"/>
      <point x="212" y="0" type="line"/>
      <point x="-130" y="0" type="line"/>
      <point x="830" y="1605" type="line"/>
      <point x="1783" y="1605" type="line"/>
      <point x="1754" y="1347" type="line"/>
      <point x="1167" y="1347" type="line"/>
    </contour>
    <contour>
      <point x="801" y="571" type="line"/>
      <point x="867" y="1119" type="line"/>
      <point x="537" y="571" type="line"/>
    </contour>
  </outline>
</glyph>
<glyph name="multiply" format="1">
  <advance width="1217"/>
  <unicode hex="00D7"/>
  <outline>
    <contour>
      <point x="767" y="547" type="line"/>
      <point x="1050" y="158" type="line"/>
      <point x="832" y="-5" type="line"/>
      <point x="570" y="355" type="line"/>
      <point x="209" y="5" type="line"/>
      <point x="15" y="197" type="line"/>
      <point x="408" y="577" type="line"/>
      <point x="118" y="976" type="line"/>
      <point x="336" y="1140" type="line"/>
      <point x="605" y="769" type="line"/>
      <point x="997" y="1149" type="line"/>
      <point x="1190" y="957" type="line"/>
    </contour>
  </outline>
</glyph>
<glyph name="Thorn" format="1">
  <advance width="1299"/>
  <unicode hex="00DE"/>
  <outline>
    <contour>
      <point x="1305" y="1091" type="curve" smooth="yes"/>
      <point x="1305" y="618"/>
      <point x="993" y="473"/>
      <point x="514" y="473" type="curve" smooth="yes"/>
      <point x="446" y="473" type="line"/>
      <point x="380" y="0" type="line"/>
      <point x="67" y="0" type="line"/>
      <point x="290" y="1608" type="line"/>
      <point x="605" y="1608" type="line"/>
      <point x="587" y="1481" type="line"/>
      <point x="688" y="1481" type="line"/>
      <point x="1025.21" y="1477.02"/>
      <point x="1305.02" y="1427.53"/>
      <point x="1305.02" y="1096.31" type="curve" smooth="yes"/>
      <point x="1305.02" y="1094.55"/>
      <point x="1305.02" y="1092.78"/>
    </contour>
    <contour>
      <point x="997.201" y="1043.47" type="curve" smooth="yes"/>
      <point x="997.201" y="1206.48"/>
      <point x="838.035" y="1221"/>
      <point x="658" y="1221" type="curve" smooth="yes"/>
      <point x="550" y="1221" type="line"/>
      <point x="482" y="735" type="line"/>
      <point x="549" y="735" type="line" smooth="yes"/>
      <point x="823.021" y="735"/>
      <point x="997.201" y="775.567"/>
    </contour>
  </outline>
</glyph>
<glyph name="germandbls" format="1">
  <advance width="1454"/>
  <unicode hex="00DF"/>
  <outline>
    <contour>
      <point x="498" y="68" type="line"/>
      <point x="800" y="85"/>
      <point x="1062" y="161"/>
      <point x="1062" y="476" type="curve" smooth="yes"/>
      <point x="1062" y="687.059"/>
      <point x="834.207" y="724"/>
      <point x="592" y="724" type="curve"/>
      <point x="622" y="937" type="line"/>
      <point x="853" y="937"/>
      <point x="1005" y="1006"/>
      <point x="1005" y="1218" type="curve" smooth="yes"/>
      <point x="1005" y="1328"/>
      <point x="929" y="1383"/>
      <point x="778" y="1383" type="curve" smooth="yes"/>
      <point x="571" y="1383"/>
      <point x="515" y="1206"/>
      <point x="494" y="1016" type="curve"/>
      <point x="351" y="0" type="line"/>
      <point x="31" y="0" type="line"/>
      <point x="173" y="1014" type="line" smooth="yes"/>
      <point x="225" y="1379"/>
      <point x="412" y="1622"/>
      <point x="812" y="1622" type="curve" smooth="yes"/>
      <point x="1077.35" y="1622"/>
      <point x="1284.2" y="1507.54"/>
      <point x="1289" y="1253" type="curve"/>
      <point x="1282" y="986"/>
      <point x="1172" y="865"/>
      <point x="914" y="845" type="curve"/>
      <point x="1161" y="819"/>
      <point x="1363" y="743"/>
      <point x="1363" y="480" type="curve" smooth="yes"/>
      <point x="1363" y="-14"/>
      <point x="1021" y="-186"/>
      <point x="544" y="-198" type="curve"/>
    </contour>
  </outline>
</glyph>
<glyph name="ae" format="1">
  <advance width="1741"/>
  <unicode hex="00E6"/>
  <outline>
    <contour>
      <point x="1247" y="199" type="curve" smooth="yes"/>
      <point x="1371" y="199"/>
      <point x="1460" y="238"/>
      <point x="1540" y="292" type="curve"/>
      <point x="1572" y="78" type="line"/>
      <point x="1464" y="23"/>
      <point x="1340" y="-16"/>
      <point x="1191" y="-16" type="curve" smooth="yes"/>
      <point x="1001" y="-16"/>
      <point x="889" y="41"/>
      <point x="808" y="150" type="curve"/>
      <point x="726.914" y="61.7589"/>
      <point x="554.125" y="-17"/>
      <point x="393" y="-17" type="curve" smooth="yes"/>
      <point x="142" y="-17"/>
      <point x="40" y="153"/>
      <point x="40" y="404" type="curve" smooth="yes"/>
      <point x="40" y="764.218"/>
      <point x="276.491" y="1145"/>
      <point x="632" y="1145" type="curve" smooth="yes"/>
      <point x="786" y="1145"/>
      <point x="912" y="1102"/>
      <point x="1016" y="1053" type="curve"/>
      <point x="1103" y="1111"/>
      <point x="1193" y="1148"/>
      <point x="1329" y="1148" type="curve" smooth="yes"/>
      <point x="1572" y="1148"/>
      <point x="1690" y="990"/>
      <point x="1690" y="749" type="curve" smooth="yes"/>
      <point x="1690" y="513.973"/>
      <point x="1273.68" y="495.267"/>
      <point x="1022" y="493" type="curve"/>
      <point x="1020" y="474"/>
      <point x="1018" y="456"/>
      <point x="1018" y="436" type="curve" smooth="yes"/>
      <point x="1018" y="289"/>
      <point x="1100" y="199"/>
    </contour>
    <contour>
      <point x="866" y="885" type="curve"/>
      <point x="804" y="898"/>
      <point x="736" y="921"/>
      <point x="658" y="921" type="curve" smooth="yes"/>
      <point x="457.988" y="921"/>
      <point x="347.514" y="638.954"/>
      <point x="346" y="430" type="curve"/>
      <point x="347" y="305"/>
      <point x="377" y="211"/>
      <point x="490" y="211" type="curve" smooth="yes"/>
      <point x="586" y="211"/>
      <point x="691" y="238"/>
      <point x="745" y="283" type="curve"/>
      <point x="735" y="323"/>
      <point x="729" y="369"/>
      <point x="729" y="419" type="curve" smooth="yes"/>
      <point x="729" y="612"/>
      <point x="783" y="769"/>
    </contour>
    <contour>
      <point x="1433" y="745" type="curve" smooth="yes"/>
      <point x="1433" y="864"/>
      <point x="1391" y="932"/>
      <point x="1280" y="935" type="curve"/>
      <point x="1129" y="929"/>
      <point x="1065" y="792"/>
      <point x="1044" y="653" type="curve"/>
      <point x="1150" y="655"/>
      <point x="1235" y="659"/>
      <point x="1316" y="674" type="curve" smooth="yes"/>
      <point x="1367.68" y="683.397"/>
      <point x="1433" y="692.451"/>
    </contour>
  </outline>
</glyph>
<glyph name="igrave" format="1">
  <advance width="557"/>
  <unicode hex="00EC"/>
  <outline>
    <contour>
      <point x="335" y="0" type="line"/>
      <point x="33" y="0" type="line"/>
      <point x="188" y="1129" type="line"/>
      <point x="490" y="1129" type="line"/>
    </contour>
    <contour>
      <point x="393" y="1254" type="line"/>
      <point x="201" y="1251" type="line"/>
      <point x="-21" y="1957" type="line"/>
      <point x="366" y="1966" type="line"/>
    </contour>
  </outline>
</glyph>
<glyph name="idieresis" format="1">
  <advance width="557"/>
  <unicode hex="00EF"/>
  <outline>
    <contour>
      <point x="335" y="0" type="line"/>
      <point x="33" y="0" type="line"/>
      <point x="188" y="1129" type="line"/>
      <point x="490" y="1129" type="line"/>
    </contour>
    <contour>
      <point x="236" y="1406" type="curve"/>
      <point x="225.332" y="1308.8"/>
      <point x="153.783" y="1223"/>
      <point x="49" y="1223" type="curve" smooth="yes"/>
      <point x="-39.6084" y="1223"/>
      <point x="-100.547" y="1295.56"/>
      <point x="-100.547" y="1380.88" type="curve" smooth="yes"/>
      <point x="-100.547" y="1486.93"/>
      <point x="-19.0891" y="1584"/>
      <point x="87" y="1584" type="curve" smooth="yes"/>
      <point x="188.278" y="1584"/>
      <point x="236" y="1505.51"/>
    </contour>
    <contour>
      <point x="837" y="1405" type="curve"/>
      <point x="826.38" y="1309.42"/>
      <point x="754.17" y="1223"/>
      <point x="651" y="1223" type="curve" smooth="yes"/>
      <point x="560.64" y="1223"/>
      <point x="501.149" y="1295.23"/>
      <point x="501.149" y="1381.49" type="curve" smooth="yes"/>
      <point x="501.149" y="1488.89"/>
      <point x="581.154" y="1584"/>
      <point x="689" y="1584" type="curve" smooth="yes"/>
      <point x="790.733" y="1584"/>
      <point x="837" y="1505.01"/>
    </contour>
  </outline>
</glyph>
<glyph name="oslash" format="1">
  <advance width="1156"/>
  <unicode hex="00F8"/>
  <outline>
    <contour>
      <point x="505" y="174" type="line"/>
      <point x="507" y="173"/>
      <point x="510" y="173"/>
      <point x="514" y="173" type="curve" smooth="yes"/>
      <point x="595" y="173"/>
      <point x="658" y="206"/>
      <point x="702" y="271" type="curve" smooth="yes"/>
      <point x="746" y="336"/>
      <point x="775" y="433"/>
      <point x="790" y="562" type="curve"/>
      <point x="795" y="612"/>
      <point x="799" y="658"/>
      <point x="797" y="708" type="curve" smooth="yes"/>
      <point x="794" y="800"/>
      <point x="773" y="866"/>
      <point x="735" y="905" type="curve"/>
    </contour>
    <contour>
      <point x="495" y="-17" type="curve" smooth="yes"/>
      <point x="477" y="-17"/>
      <point x="461" y="-17"/>
      <point x="447" y="-15" type="curve"/>
      <point x="395" y="-181" type="line"/>
      <point x="308" y="-153" type="line"/>
      <point x="357" y="0" type="line"/>
      <point x="116" y="56"/>
      <point x="22" y="268"/>
      <point x="56" y="574" type="curve" smooth="yes"/>
      <point x="84" y="831"/>
      <point x="206" y="1027"/>
      <point x="415" y="1108" type="curve" smooth="yes"/>
      <point x="474" y="1131"/>
      <point x="543" y="1142"/>
      <point x="622" y="1142" type="curve" smooth="yes"/>
      <point x="656" y="1142"/>
      <point x="684" y="1139"/>
      <point x="716" y="1135" type="curve"/>
      <point x="787" y="1367" type="line"/>
      <point x="869" y="1340" type="line"/>
      <point x="799" y="1114" type="line"/>
      <point x="976" y="1054"/>
      <point x="1063" y="903"/>
      <point x="1067" y="670" type="curve" smooth="yes"/>
      <point x="1072" y="347"/>
      <point x="935" y="105"/>
      <point x="696" y="16" type="curve" smooth="yes"/>
      <point x="638" y="-6"/>
      <point x="571" y="-17"/>
    </contour>
    <contour>
      <point x="656" y="945" type="line"/>
      <point x="635" y="949"/>
      <point x="618" y="951"/>
      <point x="605" y="951" type="curve" smooth="yes"/>
      <point x="524" y="951"/>
      <point x="462" y="919"/>
      <point x="418" y="856" type="curve" smooth="yes"/>
      <point x="333" y="735"/>
      <point x="245" y="294"/>
      <point x="418" y="196" type="curve"/>
    </contour>
  </outline>
</glyph>
<glyph name="thorn" format="1">
  <advance width="1148"/>
  <unicode hex="00FE"/>
  <outline>
    <contour>
      <point x="467" y="1070" type="line"/>
      <point x="529" y="1114"/>
      <point x="602" y="1147"/>
      <point x="699" y="1147" type="curve" smooth="yes"/>
      <point x="959" y="1147"/>
      <point x="1065" y="956"/>
      <point x="1065" y="699" type="curve" smooth="yes"/>
      <point x="1065" y="512"/>
      <point x="1014" y="353"/>
      <point x="941" y="231" type="curve" smooth="yes"/>
      <point x="885" y="137"/>
      <point x="809" y="60"/>
      <point x="705" y="16" type="curve" smooth="yes"/>
      <point x="654" y="-6"/>
      <point x="598" y="-16"/>
      <point x="535" y="-16" type="curve" smooth="yes"/>
      <point x="440" y="-16"/>
      <point x="369" y="0"/>
      <point x="322" y="32" type="curve"/>
      <point x="259" y="-419" type="line"/>
      <point x="-32" y="-451" type="line"/>
      <point x="249" y="1550" type="line"/>
      <point x="533" y="1550" type="line"/>
    </contour>
    <contour>
      <point x="367" y="314" type="line"/>
      <point x="415" y="272"/>
      <point x="481" y="236"/>
      <point x="568" y="236" type="curve" smooth="yes"/>
      <point x="700" y="236"/>
      <point x="743" y="402"/>
      <point x="764" y="514" type="curve" smooth="yes"/>
      <point x="774" y="570"/>
      <point x="782" y="635"/>
      <point x="782" y="694" type="curve" smooth="yes"/>
      <point x="783" y="827"/>
      <point x="742" y="893"/>
      <point x="660" y="893" type="curve" smooth="yes"/>
      <point x="622" y="893"/>
      <point x="587" y="876"/>
      <point x="556" y="861" type="curve" smooth="yes"/>
      <point x="514" y="840"/>
      <point x="471" y="813"/>
      <point x="434" y="785" type="curve"/>
    </contour>
  </outline>
</glyph>
<glyph name="itilde" format="1">
  <advance width="559"/>
  <unicode hex="0129"/>
  <outline>
    <contour>
      <point x="333" y="0" type="line"/>
      <point x="28" y="0" type="line"/>
      <point x="192" y="1127" type="line"/>
      <point x="497" y="1127" type="line"/>
    </contour>
    <contour>
      <point x="532" y="1452" type="curve" smooth="yes"/>
      <point x="593" y="1452"/>
      <point x="591" y="1502"/>
      <point x="600" y="1557" type="curve"/>
      <point x="801" y="1557" type="line"/>
      <point x="787" y="1422"/>
      <point x="740" y="1309"/>
      <point x="644" y="1258" type="curve" smooth="yes"/>
      <point x="616" y="1243"/>
      <point x="585" y="1235"/>
      <point x="552" y="1235" type="curve" smooth="yes"/>
      <point x="468" y="1235"/>
      <point x="401" y="1275"/>
      <point x="349" y="1310" type="curve" smooth="yes"/>
      <point x="320" y="1329"/>
      <point x="294" y="1346"/>
      <point x="270" y="1362" type="curve" smooth="yes"/>
      <point x="246" y="1378"/>
      <point x="225" y="1386"/>
      <point x="205" y="1386" type="curve" smooth="yes"/>
      <point x="150" y="1386"/>
      <point x="140" y="1327"/>
      <point x="133" y="1261" type="curve"/>
      <point x="-58" y="1261" type="line"/>
      <point x="-41" y="1442"/>
      <point x="19" y="1596"/>
      <point x="194" y="1596" type="curve" smooth="yes"/>
      <point x="276" y="1596"/>
      <point x="335" y="1559"/>
      <point x="384" y="1524" type="curve" smooth="yes"/>
      <point x="410" y="1506"/>
      <point x="434" y="1489"/>
      <point x="457" y="1474" type="curve" smooth="yes"/>
      <point x="480" y="1459"/>
      <point x="505" y="1452"/>
    </contour>
  </outline>
</glyph>
<glyph name="oe" format="1">
  <advance width="1729"/>
  <unicode hex="0153"/>
  <outline>
    <contour>
      <point x="976" y="948" type="curve"/>
      <point x="1050" y="1065"/>
      <point x="1159" y="1145"/>
      <point x="1343" y="1145" type="curve"/>
      <point x="1497" y="1143"/>
      <point x="1605" y="1079"/>
      <point x="1651" y="970" type="curve" smooth="yes"/>
      <point x="1666" y="935"/>
      <point x="1673" y="898"/>
      <point x="1673" y="858" type="curve" smooth="yes"/>
      <point x="1673" y="849"/>
      <point x="1672" y="842"/>
      <point x="1669" y="835" type="curve"/>
      <point x="1644" y="546"/>
      <point x="1373" y="460"/>
      <point x="1064" y="451" type="curve"/>
      <point x="1063" y="404"/>
      <point x="1069" y="364"/>
      <point x="1083" y="331" type="curve"/>
      <point x="1108" y="255"/>
      <point x="1167" y="206"/>
      <point x="1265" y="206" type="curve" smooth="yes"/>
      <point x="1361" y="206"/>
      <point x="1449" y="237"/>
      <point x="1530" y="298" type="curve"/>
      <point x="1586" y="97" type="line"/>
      <point x="1471" y="33"/>
      <point x="1344" y="-15"/>
      <point x="1186" y="-17" type="curve"/>
      <point x="1036" y="-14"/>
      <point x="906" y="49"/>
      <point x="871" y="168" type="curve"/>
      <point x="792" y="61"/>
      <point x="673" y="-12"/>
      <point x="499" y="-15" type="curve" smooth="yes"/>
      <point x="442" y="-16"/>
      <point x="392" y="-11"/>
      <point x="347" y="1" type="curve"/>
      <point x="112" y="58"/>
      <point x="18" y="276"/>
      <point x="60" y="576" type="curve" smooth="yes"/>
      <point x="96" y="832"/>
      <point x="220" y="1028"/>
      <point x="434" y="1110" type="curve" smooth="yes"/>
      <point x="494" y="1133"/>
      <point x="565" y="1145"/>
      <point x="644" y="1145" type="curve" smooth="yes"/>
      <point x="778" y="1145"/>
      <point x="885" y="1098"/>
      <point x="942" y="1022" type="curve" smooth="yes"/>
      <point x="960" y="998"/>
      <point x="971" y="974"/>
    </contour>
    <contour>
      <point x="518" y="211" type="curve"/>
      <point x="620" y="213"/>
      <point x="682" y="290"/>
      <point x="718" y="366" type="curve" smooth="yes"/>
      <point x="758" y="451"/>
      <point x="781" y="573"/>
      <point x="780" y="696" type="curve" smooth="yes"/>
      <point x="778" y="829"/>
      <point x="741" y="915"/>
      <point x="614" y="915" type="curve" smooth="yes"/>
      <point x="424" y="915"/>
      <point x="369" y="702"/>
      <point x="355" y="527" type="curve" smooth="yes"/>
      <point x="342" y="361"/>
      <point x="362" y="213"/>
    </contour>
    <contour>
      <point x="1446" y="805" type="curve" smooth="yes"/>
      <point x="1446" y="880"/>
      <point x="1408" y="927"/>
      <point x="1332" y="927" type="curve" smooth="yes"/>
      <point x="1202" y="927"/>
      <point x="1133" y="826"/>
      <point x="1102" y="725" type="curve" smooth="yes"/>
      <point x="1090" y="688"/>
      <point x="1084" y="651"/>
      <point x="1081" y="614" type="curve"/>
      <point x="1128" y="621"/>
      <point x="1183" y="621"/>
      <point x="1230" y="630" type="curve" smooth="yes"/>
      <point x="1306" y="644"/>
      <point x="1380" y="671"/>
      <point x="1422" y="719" type="curve"/>
      <point x="1435" y="743"/>
      <point x="1446" y="771"/>
    </contour>
  </outline>
</glyph>
<glyph name="ring" format="1">
  <advance width="876"/>
  <unicode hex="02DA"/>
  <outline>
    <contour>
      <point x="460" y="658" type="curve" smooth="yes"/>
      <point x="369" y="658"/>
      <point x="304" y="598"/>
      <point x="274" y="534" type="curve" smooth="yes"/>
      <point x="218" y="416"/>
      <point x="303" y="299"/>
      <point x="421" y="299" type="curve" smooth="yes"/>
      <point x="512" y="299"/>
      <point x="577" y="357"/>
      <point x="606" y="422" type="curve" smooth="yes"/>
      <point x="659" y="539"/>
      <point x="576" y="658"/>
    </contour>
    <contour>
      <point x="122" y="318" type="curve" smooth="yes"/>
      <point x="84" y="396"/>
      <point x="86" y="500"/>
      <point x="124" y="580" type="curve" smooth="yes"/>
      <point x="167" y="670"/>
      <point x="241" y="740"/>
      <point x="334" y="779" type="curve" smooth="yes"/>
      <point x="380" y="798"/>
      <point x="428" y="808"/>
      <point x="476" y="808" type="curve" smooth="yes"/>
      <point x="615" y="808"/>
      <point x="711" y="733"/>
      <point x="757" y="638" type="curve" smooth="yes"/>
      <point x="795" y="561"/>
      <point x="793" y="461"/>
      <point x="756" y="380" type="curve" smooth="yes"/>
      <point x="714" y="289"/>
      <point x="642" y="218"/>
      <point x="549" y="178" type="curve" smooth="yes"/>
      <point x="502" y="158"/>
      <point x="454" y="148"/>
      <point x="405" y="148" type="curve" smooth="yes"/>
      <point x="267" y="148"/>
      <point x="168" y="223"/>
    </contour>
  </outline>
</glyph>
<glyph name="ogonek" format="1">
  <advance width="399"/>
  <unicode hex="02DB"/>
  <outline>
    <contour>
      <point x="269" y="-451" type="curve" smooth="yes"/>
      <point x="328" y="-451"/>
      <point x="396" y="-429"/>
      <point x="433" y="-408" type="curve"/>
      <point x="447" y="-541" type="line"/>
      <point x="390" y="-577"/>
      <point x="321" y="-604"/>
      <point x="237" y="-604" type="curve" smooth="yes"/>
      <point x="105" y="-604"/>
      <point x="18" y="-540"/>
      <point x="-24" y="-447" type="curve" smooth="yes"/>
      <point x="-40" y="-412"/>
      <point x="-48" y="-372"/>
      <point x="-48" y="-327" type="curve" smooth="yes"/>
      <point x="-48" y="-204"/>
      <point x="27" y="-126"/>
      <point x="96" y="-70" type="curve" smooth="yes"/>
      <point x="138" y="-35"/>
      <point x="186" y="-5"/>
      <point x="240" y="20" type="curve"/>
      <point x="362" y="20" type="line"/>
      <point x="283" y="-42"/>
      <point x="217" y="-107"/>
      <point x="166" y="-194" type="curve" smooth="yes"/>
      <point x="148" y="-226"/>
      <point x="129" y="-265"/>
      <point x="129" y="-310" type="curve" smooth="yes"/>
      <point x="129" y="-403"/>
      <point x="178" y="-451"/>
    </contour>
  </outline>
</glyph>
<glyph name="tilde" format="1">
  <advance width="1092"/>
  <unicode hex="02DC"/>
  <outline>
    <contour>
      <point x="719" y="363" type="curve" smooth="yes"/>
      <point x="780" y="363"/>
      <point x="778" y="413"/>
      <point x="787" y="468" type="curve"/>
      <point x="988" y="468" type="line"/>
      <point x="974" y="333"/>
      <point x="928" y="219"/>
      <point x="832" y="168" type="curve" smooth="yes"/>
      <point x="804" y="153"/>
      <point x="772" y="146"/>
      <point x="739" y="146" type="curve" smooth="yes"/>
      <point x="655" y="146"/>
      <point x="588" y="187"/>
      <point x="536" y="222" type="curve" smooth="yes"/>
      <point x="507" y="241"/>
      <point x="482" y="258"/>
      <point x="458" y="274" type="curve" smooth="yes"/>
      <point x="434" y="290"/>
      <point x="412" y="297"/>
      <point x="392" y="297" type="curve" smooth="yes"/>
      <point x="337" y="297"/>
      <point x="327" y="238"/>
      <point x="320" y="172" type="curve"/>
      <point x="129" y="172" type="line"/>
      <point x="146" y="353"/>
      <point x="206" y="507"/>
      <point x="381" y="507" type="curve" smooth="yes"/>
      <point x="463" y="507"/>
      <point x="521" y="470"/>
      <point x="570" y="435" type="curve" smooth="yes"/>
      <point x="596" y="417"/>
      <point x="621" y="401"/>
      <point x="644" y="386" type="curve" smooth="yes"/>
      <point x="667" y="371"/>
      <point x="692" y="363"/>
    </contour>
  </outline>
</glyph>
<glyph name="hungarumlaut" format="1">
  <advance width="1806"/>
  <unicode hex="02DD"/>
  <outline>
    <contour>
      <point x="546" y="96" type="line"/>
      <point x="368" y="96" type="line"/>
      <point x="527" y="792" type="line"/>
      <point x="869" y="792" type="line"/>
    </contour>
    <contour>
      <point x="985" y="96" type="line"/>
      <point x="807" y="96" type="line"/>
      <point x="966" y="792" type="line"/>
      <point x="1308" y="792" type="line"/>
    </contour>
  </outline>
</glyph>
<glyph name="acutecomb" format="1">
  <advance width="1020"/>
  <unicode hex="0301"/>
  <outline>
    <contour>
      <point x="476" y="155" type="line"/>
      <point x="721" y="766" type="line"/>
      <point x="1012" y="675" type="line"/>
      <point x="615" y="129" type="line"/>
    </contour>
  </outline>
</glyph>
<glyph name="uni0311" format="1">
  <advance width="1249"/>
  <unicode hex="0311"/>
  <outline>
    <contour>
      <point x="702" y="243" type="curve" smooth="yes"/>
      <point x="818" y="243"/>
      <point x="851" y="318"/>
      <point x="868" y="429" type="curve"/>
      <point x="1070" y="429" type="line"/>
      <point x="1066" y="425" type="line"/>
      <point x="1030" y="214"/>
      <point x="916" y="104"/>
      <point x="678" y="104" type="curve" smooth="yes"/>
      <point x="484" y="104"/>
      <point x="369" y="181"/>
      <point x="386" y="380" type="curve" smooth="yes"/>
      <point x="387" y="395"/>
      <point x="390" y="412"/>
      <point x="393" y="429" type="curve"/>
      <point x="597" y="429" type="line"/>
      <point x="593" y="401"/>
      <point x="587" y="370"/>
      <point x="593" y="340" type="curve"/>
      <point x="599" y="271"/>
      <point x="625" y="243"/>
    </contour>
  </outline>
</glyph>
<glyph name="afii10145" format="1">
  <advance width="1653"/>
  <unicode hex="040F"/>
  <outline>
    <contour>
      <point x="1405" y="0" type="line"/>
      <point x="915" y="0" type="line"/>
      <point x="862" y="-372" type="line"/>
      <point x="508" y="-372" type="line"/>
      <point x="562" y="0" type="line"/>
      <point x="65" y="0" type="line"/>
      <point x="291" y="1606" type="line"/>
      <point x="648" y="1606" type="line"/>
      <point x="452" y="222" type="line"/>
      <point x="1078" y="222" type="line"/>
      <point x="1274" y="1606" type="line"/>
      <point x="1630" y="1606" type="line"/>
    </contour>
  </outline>
</glyph>
<glyph name="afii10026" format="1">
  <advance width="1654"/>
  <unicode hex="0418"/>
  <outline>
    <contour>
      <point x="58" y="0" type="line"/>
      <point x="297" y="1606" type="line"/>
      <point x="612" y="1606" type="line"/>
      <point x="464" y="611" type="line"/>
      <point x="1246" y="1606" type="line"/>
      <point x="1638" y="1606" type="line"/>
      <point x="1399" y="0" type="line"/>
      <point x="1088" y="0" type="line"/>
      <point x="1259" y="1157" type="line"/>
      <point x="392" y="124" type="line"/>
      <point x="374" y="0" type="line"/>
    </contour>
  </outline>
</glyph>
<glyph name="afii10029" format="1">
  <advance width="1662"/>
  <unicode hex="041B"/>
  <outline>
    <contour>
      <point x="1407" y="0" type="line"/>
      <point x="1096" y="0" type="line"/>
      <point x="1302" y="1386" type="line"/>
      <point x="731" y="1386" type="line"/>
      <point x="649" y="838" type="line"/>
      <point x="602" y="535"/>
      <point x="545" y="257"/>
      <point x="344" y="110" type="curve" smooth="yes"/>
      <point x="241" y="35"/>
      <point x="104" y="-3"/>
      <point x="-77" y="-3" type="curve"/>
      <point x="-30" y="323" type="line"/>
      <point x="105" y="335"/>
      <point x="200" y="370"/>
      <point x="251" y="462" type="curve" smooth="yes"/>
      <point x="303" y="557"/>
      <point x="312" y="691"/>
      <point x="332" y="823" type="curve" smooth="yes"/>
      <point x="449" y="1606" type="line"/>
      <point x="1646" y="1606" type="line"/>
    </contour>
  </outline>
</glyph>
<glyph name="afii10038" format="1">
  <advance width="1752"/>
  <unicode hex="0424"/>
  <outline>
    <contour>
      <point x="991" y="347" type="line"/>
      <point x="1002" y="347" type="line" smooth="yes"/>
      <point x="1219" y="347"/>
      <point x="1324" y="495"/>
      <point x="1379" y="659" type="curve" smooth="yes"/>
      <point x="1406" y="740"/>
      <point x="1421" y="837"/>
      <point x="1421" y="941" type="curve" smooth="yes"/>
      <point x="1421" y="1155"/>
      <point x="1330" y="1250"/>
      <point x="1126" y="1256" type="curve"/>
    </contour>
    <contour>
      <point x="813" y="1254" type="line"/>
      <point x="795" y="1254" type="line" smooth="yes"/>
      <point x="481" y="1254"/>
      <point x="376" y="998"/>
      <point x="376" y="684" type="curve" smooth="yes"/>
      <point x="376" y="471"/>
      <point x="475" y="351"/>
      <point x="679" y="347" type="curve"/>
    </contour>
    <contour>
      <point x="929" y="-74" type="line"/>
      <point x="614" y="-74" type="line"/>
      <point x="640" y="91" type="line"/>
      <point x="348" y="91"/>
      <point x="168" y="244"/>
      <point x="97" y="464" type="curve" smooth="yes"/>
      <point x="74" y="536"/>
      <point x="62" y="611"/>
      <point x="62" y="690" type="curve" smooth="yes"/>
      <point x="62" y="928"/>
      <point x="153" y="1112"/>
      <point x="266" y="1246" type="curve" smooth="yes"/>
      <point x="354" y="1351"/>
      <point x="471" y="1432"/>
      <point x="617" y="1478" type="curve" smooth="yes"/>
      <point x="689" y="1501"/>
      <point x="768" y="1512"/>
      <point x="853" y="1512" type="curve"/>
      <point x="877" y="1676" type="line"/>
      <point x="1189" y="1676" type="line"/>
      <point x="1164" y="1512" type="line"/>
      <point x="1426" y="1512"/>
      <point x="1584" y="1385"/>
      <point x="1668" y="1206" type="curve" smooth="yes"/>
      <point x="1706" y="1124"/>
      <point x="1730" y="1024"/>
      <point x="1730" y="910" type="curve" smooth="yes"/>
      <point x="1730" y="673"/>
      <point x="1642" y="490"/>
      <point x="1530" y="356" type="curve" smooth="yes"/>
      <point x="1443" y="252"/>
      <point x="1328" y="171"/>
      <point x="1184" y="125" type="curve" smooth="yes"/>
      <point x="1113" y="102"/>
      <point x="1036" y="91"/>
      <point x="952" y="91" type="curve"/>
    </contour>
  </outline>
</glyph>
<glyph name="afii10044" format="1">
  <advance width="1589"/>
  <unicode hex="042A"/>
  <outline>
    <contour>
      <point x="791" y="1606" type="line"/>
      <point x="539" y="1380" type="line"/>
      <point x="149" y="1380" type="line"/>
      <point x="185" y="1606" type="line"/>
    </contour>
    <contour>
      <point x="836" y="1606" type="line"/>
      <point x="749" y="1034" type="line"/>
      <point x="885" y="1034" type="line" smooth="yes"/>
      <point x="1100" y="1034"/>
      <point x="1268" y="984"/>
      <point x="1380" y="890" type="curve" smooth="yes"/>
      <point x="1468" y="817"/>
      <point x="1531" y="710"/>
      <point x="1531" y="565" type="curve" smooth="yes"/>
      <point x="1531" y="391"/>
      <point x="1455" y="268"/>
      <point x="1360" y="180" type="curve" smooth="yes"/>
      <point x="1235" y="64"/>
      <point x="1046" y="0"/>
      <point x="803" y="0" type="curve" smooth="yes"/>
      <point x="280" y="0" type="line"/>
      <point x="524" y="1606" type="line"/>
    </contour>
    <contour>
      <point x="1207" y="574" type="curve" smooth="yes"/>
      <point x="1207" y="776"/>
      <point x="1016" y="815"/>
      <point x="814" y="815" type="curve" smooth="yes"/>
      <point x="715" y="815" type="line"/>
      <point x="629" y="215" type="line"/>
      <point x="769" y="215" type="line" smooth="yes"/>
      <point x="1031" y="215"/>
      <point x="1207" y="311"/>
    </contour>
  </outline>
</glyph>
<glyph name="afii10045" format="1">
  <advance width="2009"/>
  <unicode hex="042B"/>
  <outline>
    <contour>
      <point x="1756" y="0" type="line"/>
      <point x="1438" y="0" type="line"/>
      <point x="1678" y="1606" type="line"/>
      <point x="1991" y="1606" type="line"/>
    </contour>
    <contour>
      <point x="612" y="1606" type="line"/>
      <point x="525" y="1034" type="line"/>
      <point x="661" y="1034" type="line" smooth="yes"/>
      <point x="876" y="1034"/>
      <point x="1044" y="984"/>
      <point x="1156" y="890" type="curve" smooth="yes"/>
      <point x="1244" y="817"/>
      <point x="1307" y="710"/>
      <point x="1307" y="565" type="curve" smooth="yes"/>
      <point x="1307" y="391"/>
      <point x="1231" y="268"/>
      <point x="1136" y="180" type="curve" smooth="yes"/>
      <point x="1011" y="64"/>
      <point x="822" y="0"/>
      <point x="579" y="0" type="curve" smooth="yes"/>
      <point x="56" y="0" type="line"/>
      <point x="300" y="1606" type="line"/>
    </contour>
    <contour>
      <point x="983" y="574" type="curve" smooth="yes"/>
      <point x="983" y="776"/>
      <point x="792" y="815"/>
      <point x="590" y="815" type="curve" smooth="yes"/>
      <point x="491" y="815" type="line"/>
      <point x="405" y="215" type="line"/>
      <point x="545" y="215" type="line" smooth="yes"/>
      <point x="807" y="215"/>
      <point x="983" y="311"/>
    </contour>
  </outline>
</glyph>
<glyph name="afii10047" format="1">
  <advance width="1288"/>
  <unicode hex="042D"/>
  <outline>
    <contour>
      <point x="157" y="1519" type="line"/>
      <point x="295" y="1588"/>
      <point x="453" y="1632"/>
      <point x="647" y="1632" type="curve" smooth="yes"/>
      <point x="936" y="1632"/>
      <point x="1115" y="1485"/>
      <point x="1191" y="1268" type="curve" smooth="yes"/>
      <point x="1218" y="1190"/>
      <point x="1232" y="1102"/>
      <point x="1232" y="1004" type="curve" smooth="yes"/>
      <point x="1232" y="610"/>
      <point x="1115" y="295"/>
      <point x="897" y="115" type="curve" smooth="yes"/>
      <point x="787" y="24"/>
      <point x="640" y="-38"/>
      <point x="445" y="-38" type="curve" smooth="yes"/>
      <point x="299" y="-38"/>
      <point x="161" y="-8"/>
      <point x="62" y="40" type="curve" smooth="yes"/>
      <point x="30" y="55"/>
      <point x="5" y="71"/>
      <point x="-12" y="88" type="curve"/>
      <point x="126" y="340" type="line"/>
      <point x="225" y="267"/>
      <point x="335" y="230"/>
      <point x="458" y="230" type="curve" smooth="yes"/>
      <point x="574" y="230"/>
      <point x="668" y="272"/>
      <point x="740" y="354" type="curve" smooth="yes"/>
      <point x="812" y="436"/>
      <point x="861" y="554"/>
      <point x="889" y="707" type="curve"/>
      <point x="317" y="707" type="line"/>
      <point x="351" y="928" type="line"/>
      <point x="910" y="928" type="line"/>
      <point x="913" y="957"/>
      <point x="914" y="988"/>
      <point x="914" y="1019" type="curve" smooth="yes"/>
      <point x="914" y="1228"/>
      <point x="816" y="1373"/>
      <point x="605" y="1373" type="curve" smooth="yes"/>
      <point x="448" y="1373"/>
      <point x="319" y="1324"/>
      <point x="212" y="1266" type="curve"/>
    </contour>
  </outline>
</glyph>
<glyph name="afii10068" format="1">
  <advance width="935"/>
  <unicode hex="0433"/>
  <outline>
    <contour>
      <point x="28" y="0" type="line"/>
      <point x="192" y="1127" type="line"/>
      <point x="971" y="1127" type="line"/>
      <point x="936" y="877" type="line"/>
      <point x="460" y="877" type="line"/>
      <point x="333" y="0" type="line"/>
    </contour>
  </outline>
</glyph>
<glyph name="afii10069" format="1">
  <advance width="1431"/>
  <unicode hex="0434"/>
  <outline>
    <contour>
      <point x="78" y="298" type="curve" smooth="yes"/>
      <point x="230" y="404"/>
      <point x="275" y="617"/>
      <point x="338" y="814" type="curve" smooth="yes"/>
      <point x="372" y="921"/>
      <point x="402" y="1012"/>
      <point x="439" y="1127" type="curve"/>
      <point x="1260" y="1127" type="line"/>
      <point x="1133" y="254" type="line"/>
      <point x="1315" y="254" type="line"/>
      <point x="1242" y="-270" type="line"/>
      <point x="992" y="-270" type="line"/>
      <point x="1030" y="0" type="line"/>
      <point x="208" y="0" type="line"/>
      <point x="170" y="-270" type="line"/>
      <point x="-94" y="-270" type="line"/>
      <point x="-22" y="253" type="line"/>
      <point x="14" y="262"/>
      <point x="47" y="277"/>
    </contour>
    <contour>
      <point x="917" y="877" type="line"/>
      <point x="658" y="877" type="line"/>
      <point x="575" y="571" type="line" smooth="yes"/>
      <point x="541" y="442"/>
      <point x="497" y="329"/>
      <point x="416" y="252" type="curve"/>
      <point x="827" y="252" type="line"/>
    </contour>
  </outline>
</glyph>
<glyph name="afii10074" format="1">
  <advance width="1369"/>
  <unicode hex="0438"/>
  <outline>
    <contour>
      <point x="1143" y="0" type="line"/>
      <point x="838" y="0" type="line"/>
      <point x="941" y="716" type="line"/>
      <point x="355" y="148" type="line"/>
      <point x="333" y="0" type="line"/>
      <point x="28" y="0" type="line"/>
      <point x="192" y="1127" type="line"/>
      <point x="497" y="1127" type="line"/>
      <point x="411" y="538" type="line"/>
      <point x="1003" y="1127" type="line"/>
      <point x="1307" y="1127" type="line"/>
    </contour>
  </outline>
</glyph>
<glyph name="afii10078" format="1">
  <advance width="1734"/>
  <unicode hex="043C"/>
  <outline>
    <contour>
      <point x="1672" y="1127" type="line"/>
      <point x="1508" y="0" type="line"/>
      <point x="1204" y="0" type="line"/>
      <point x="1310" y="739" type="line"/>
      <point x="930" y="0" type="line"/>
      <point x="594" y="0" type="line"/>
      <point x="440" y="739" type="line"/>
      <point x="333" y="0" type="line"/>
      <point x="28" y="0" type="line"/>
      <point x="192" y="1127" type="line"/>
      <point x="633" y="1127" type="line"/>
      <point x="805" y="337" type="line"/>
      <point x="1196" y="1127" type="line"/>
    </contour>
  </outline>
</glyph>
<glyph name="afii10081" format="1">
  <advance width="1310"/>
  <unicode hex="043F"/>
  <outline>
    <contour>
      <point x="1084" y="0" type="line"/>
      <point x="777" y="0" type="line"/>
      <point x="906" y="877" type="line"/>
      <point x="461" y="877" type="line"/>
      <point x="333" y="0" type="line"/>
      <point x="28" y="0" type="line"/>
      <point x="192" y="1127" type="line"/>
      <point x="1248" y="1127" type="line"/>
    </contour>
  </outline>
</glyph>
<glyph name="afii10086" format="1">
  <advance width="1422"/>
  <unicode hex="0444"/>
  <outline>
    <contour>
      <point x="572" y="1131" type="curve" smooth="yes"/>
      <point x="590" y="1131"/>
      <point x="604" y="1128"/>
      <point x="621" y="1127" type="curve"/>
      <point x="635" y="1231" type="line"/>
      <point x="941" y="1231" type="line"/>
      <point x="927" y="1127" type="line"/>
      <point x="939" y="1127"/>
      <point x="951" y="1131"/>
      <point x="963" y="1131" type="curve" smooth="yes"/>
      <point x="1173" y="1131"/>
      <point x="1294" y="1007"/>
      <point x="1341" y="843" type="curve" smooth="yes"/>
      <point x="1357" y="787"/>
      <point x="1365" y="729"/>
      <point x="1365" y="668" type="curve" smooth="yes"/>
      <point x="1365" y="480"/>
      <point x="1302" y="328"/>
      <point x="1220" y="216" type="curve" smooth="yes"/>
      <point x="1135" y="101"/>
      <point x="1007" y="0"/>
      <point x="813" y="0" type="curve" smooth="yes"/>
      <point x="797" y="0"/>
      <point x="784" y="3"/>
      <point x="769" y="4" type="curve"/>
      <point x="751" y="-121" type="line"/>
      <point x="445" y="-121" type="line"/>
      <point x="463" y="4" type="line"/>
      <point x="450" y="4"/>
      <point x="440" y="1"/>
      <point x="428" y="0" type="curve"/>
      <point x="161" y="0"/>
      <point x="19" y="164"/>
      <point x="19" y="427" type="curve" smooth="yes"/>
      <point x="19" y="622"/>
      <point x="89" y="781"/>
      <point x="174" y="899" type="curve" smooth="yes"/>
      <point x="236" y="986"/>
      <point x="318" y="1059"/>
      <point x="420" y="1101" type="curve" smooth="yes"/>
      <point x="468" y="1121"/>
      <point x="519" y="1131"/>
    </contour>
    <contour>
      <point x="589" y="877" type="line"/>
      <point x="399" y="877"/>
      <point x="361" y="742"/>
      <point x="336" y="566" type="curve"/>
      <point x="312" y="400"/>
      <point x="323" y="254"/>
      <point x="498" y="254" type="curve"/>
    </contour>
    <contour>
      <point x="804" y="254" type="line"/>
      <point x="989" y="254"/>
      <point x="1029" y="395"/>
      <point x="1054" y="566" type="curve" smooth="yes"/>
      <point x="1060" y="611"/>
      <point x="1063" y="649"/>
      <point x="1063" y="682" type="curve" smooth="yes"/>
      <point x="1063" y="813"/>
      <point x="1021" y="877"/>
      <point x="893" y="877" type="curve"/>
    </contour>
  </outline>
</glyph>
<glyph name="afii10091" format="1">
  <advance width="1812"/>
  <unicode hex="0449"/>
  <outline>
    <contour>
      <point x="1367" y="0" type="line"/>
      <point x="1500" y="248" type="line"/>
      <point x="1693" y="248" type="line"/>
      <point x="1604" y="-391" type="line"/>
      <point x="1312" y="-391" type="line"/>
    </contour>
    <contour>
      <point x="192" y="1127" type="line"/>
      <point x="497" y="1127" type="line"/>
      <point x="370" y="251" type="line"/>
      <point x="632" y="251" type="line"/>
      <point x="759" y="1127" type="line"/>
      <point x="1065" y="1127" type="line"/>
      <point x="936" y="251" type="line"/>
      <point x="1198" y="251" type="line"/>
      <point x="1325" y="1127" type="line"/>
      <point x="1630" y="1127" type="line"/>
      <point x="1466" y="0" type="line"/>
      <point x="28" y="0" type="line"/>
    </contour>
  </outline>
</glyph>
<glyph name="afii10094" format="1">
  <advance width="1099"/>
  <unicode hex="044C"/>
  <outline>
    <contour>
      <point x="191" y="1127" type="line"/>
      <point x="498" y="1127" type="line"/>
      <point x="454" y="832" type="line"/>
      <point x="607" y="833" type="line" smooth="yes"/>
      <point x="805" y="835"/>
      <point x="939" y="733"/>
      <point x="996" y="592" type="curve" smooth="yes"/>
      <point x="1015" y="546"/>
      <point x="1024" y="498"/>
      <point x="1024" y="449" type="curve" smooth="yes"/>
      <point x="1024" y="314"/>
      <point x="957" y="211"/>
      <point x="874" y="142" type="curve" smooth="yes"/>
      <point x="765" y="51"/>
      <point x="603" y="0"/>
      <point x="396" y="0" type="curve" smooth="yes"/>
      <point x="30" y="0" type="line"/>
    </contour>
    <contour>
      <point x="721" y="444" type="curve" smooth="yes"/>
      <point x="721" y="544"/>
      <point x="644" y="593"/>
      <point x="540" y="593" type="curve" smooth="yes"/>
      <point x="421" y="593" type="line"/>
      <point x="370" y="236" type="line"/>
      <point x="498" y="235" type="line" smooth="yes"/>
      <point x="603" y="235"/>
      <point x="675" y="295"/>
      <point x="706" y="370" type="curve" smooth="yes"/>
      <point x="716" y="395"/>
      <point x="721" y="419"/>
    </contour>
  </outline>
</glyph>
<glyph name="afii10095" format="1">
  <advance width="1050"/>
  <unicode hex="044D"/>
  <outline>
    <contour>
      <point x="108" y="1043" type="line"/>
      <point x="239" y="1105"/>
      <point x="351" y="1144"/>
      <point x="536" y="1144" type="curve" smooth="yes"/>
      <point x="761" y="1144"/>
      <point x="892" y="1012"/>
      <point x="945" y="839" type="curve" smooth="yes"/>
      <point x="963" y="780"/>
      <point x="972" y="718"/>
      <point x="972" y="654" type="curve" smooth="yes"/>
      <point x="972" y="461"/>
      <point x="902" y="310"/>
      <point x="812" y="200" type="curve" smooth="yes"/>
      <point x="711" y="77"/>
      <point x="560" y="-17"/>
      <point x="339" y="-17" type="curve" smooth="yes"/>
      <point x="177" y="-17"/>
      <point x="75" y="16"/>
      <point x="-30" y="75" type="curve"/>
      <point x="72" y="317" type="line" smooth="yes"/>
      <point x="73" y="317"/>
      <point x="78" y="312"/>
      <point x="90" y="304" type="curve" smooth="yes"/>
      <point x="140" y="269"/>
      <point x="219" y="238"/>
      <point x="306" y="238" type="curve" smooth="yes"/>
      <point x="443" y="238"/>
      <point x="534" y="264"/>
      <point x="591" y="344" type="curve" smooth="yes"/>
      <point x="611" y="372"/>
      <point x="628" y="408"/>
      <point x="641" y="453" type="curve"/>
      <point x="326" y="453" type="line"/>
      <point x="355" y="646" type="line"/>
      <point x="674" y="646" type="line"/>
      <point x="674" y="779"/>
      <point x="650" y="867"/>
      <point x="540" y="884" type="curve" smooth="yes"/>
      <point x="510" y="889"/>
      <point x="475" y="891"/>
      <point x="434" y="891" type="curve" smooth="yes"/>
      <point x="342" y="891"/>
      <point x="249" y="857"/>
      <point x="185" y="826" type="curve" smooth="yes"/>
      <point x="164" y="816"/>
      <point x="149" y="808"/>
      <point x="142" y="801" type="curve"/>
    </contour>
  </outline>
</glyph>
<glyph name="afii10101" format="1">
  <advance width="1033"/>
  <unicode hex="0454"/>
  <outline>
    <contour>
      <point x="697" y="1144" type="curve" smooth="yes"/>
      <point x="699" y="1144"/>
      <point x="705" y="1145"/>
      <point x="707" y="1145" type="curve" smooth="yes"/>
      <point x="853" y="1142"/>
      <point x="945" y="1103"/>
      <point x="1039" y="1047" type="curve"/>
      <point x="944" y="841" type="line"/>
      <point x="933" y="858"/>
      <point x="899" y="876"/>
      <point x="875" y="889" type="curve" smooth="yes"/>
      <point x="835" y="910"/>
      <point x="780" y="931"/>
      <point x="719" y="931" type="curve" smooth="yes"/>
      <point x="554" y="931"/>
      <point x="446" y="841"/>
      <point x="395" y="660" type="curve"/>
      <point x="701" y="660" type="line"/>
      <point x="671" y="477" type="line"/>
      <point x="362" y="477" type="line"/>
      <point x="361" y="452"/>
      <point x="361" y="429"/>
      <point x="362" y="407" type="curve" smooth="yes"/>
      <point x="365" y="259"/>
      <point x="433" y="189"/>
      <point x="584" y="196" type="curve"/>
      <point x="669" y="196"/>
      <point x="753" y="228"/>
      <point x="812" y="257" type="curve" smooth="yes"/>
      <point x="832" y="267"/>
      <point x="847" y="276"/>
      <point x="856" y="285" type="curve"/>
      <point x="883" y="78" type="line"/>
      <point x="790" y="32"/>
      <point x="706" y="-7"/>
      <point x="584" y="-14" type="curve" smooth="yes"/>
      <point x="554" y="-16"/>
      <point x="522" y="-17"/>
      <point x="488" y="-17" type="curve" smooth="yes"/>
      <point x="278" y="-21"/>
      <point x="141" y="92"/>
      <point x="80" y="242" type="curve" smooth="yes"/>
      <point x="-10" y="463"/>
      <point x="82" y="747"/>
      <point x="178" y="890" type="curve" smooth="yes"/>
      <point x="279" y="1039"/>
      <point x="447" y="1144"/>
    </contour>
  </outline>
</glyph>
<glyph name="afii10106" format="1">
  <advance width="1934"/>
  <unicode hex="0459"/>
  <outline>
    <contour>
      <point x="438" y="1127" type="line"/>
      <point x="1332" y="1127" type="line"/>
      <point x="1288" y="832" type="line"/>
      <point x="1441" y="833" type="line" smooth="yes"/>
      <point x="1639" y="835"/>
      <point x="1773" y="733"/>
      <point x="1830" y="592" type="curve" smooth="yes"/>
      <point x="1849" y="546"/>
      <point x="1858" y="498"/>
      <point x="1858" y="449" type="curve" smooth="yes"/>
      <point x="1858" y="314"/>
      <point x="1791" y="211"/>
      <point x="1708" y="142" type="curve" smooth="yes"/>
      <point x="1599" y="51"/>
      <point x="1437" y="0"/>
      <point x="1230" y="0" type="curve" smooth="yes"/>
      <point x="864" y="0" type="line"/>
      <point x="994" y="912" type="line"/>
      <point x="690" y="912" type="line"/>
      <point x="593" y="539" type="line"/>
      <point x="541" y="333"/>
      <point x="469" y="160"/>
      <point x="300" y="69" type="curve" smooth="yes"/>
      <point x="205" y="18"/>
      <point x="86" y="-6"/>
      <point x="-65" y="-6" type="curve"/>
      <point x="-27" y="272" type="line"/>
      <point x="168" y="272"/>
      <point x="254" y="359"/>
      <point x="292" y="521" type="curve"/>
    </contour>
    <contour>
      <point x="1555" y="444" type="curve" smooth="yes"/>
      <point x="1555" y="544"/>
      <point x="1478" y="593"/>
      <point x="1374" y="593" type="curve" smooth="yes"/>
      <point x="1255" y="593" type="line"/>
      <point x="1204" y="236" type="line"/>
      <point x="1332" y="235" type="line" smooth="yes"/>
      <point x="1437" y="235"/>
      <point x="1509" y="295"/>
      <point x="1540" y="370" type="curve" smooth="yes"/>
      <point x="1550" y="395"/>
      <point x="1555" y="419"/>
    </contour>
  </outline>
</glyph>
<glyph name="uni048E" format="1">
  <advance width="1299"/>
  <unicode hex="048E"/>
  <outline>
    <contour>
      <point x="612" y="980" type="line"/>
      <point x="804" y="1091" type="line"/>
      <point x="1169" y="459" type="line"/>
      <point x="976" y="348" type="line"/>
    </contour>
    <contour>
      <point x="1025" y="1151" type="curve" smooth="yes"/>
      <point x="1025" y="1338"/>
      <point x="863" y="1373"/>
      <point x="668" y="1373" type="curve" smooth="yes"/>
      <point x="575" y="1373" type="line"/>
      <point x="498" y="803" type="line"/>
      <point x="562" y="803" type="line" smooth="yes"/>
      <point x="841" y="803"/>
      <point x="1025" y="890"/>
    </contour>
    <contour>
      <point x="704" y="1606" type="line" smooth="yes"/>
      <point x="1055" y="1606"/>
      <point x="1330" y="1529"/>
      <point x="1327" y="1185" type="curve" smooth="yes"/>
      <point x="1323" y="849"/>
      <point x="1167" y="688"/>
      <point x="882" y="630" type="curve" smooth="yes"/>
      <point x="782" y="610"/>
      <point x="663" y="600"/>
      <point x="525" y="600" type="curve" smooth="yes"/>
      <point x="460" y="600" type="line"/>
      <point x="372" y="0" type="line"/>
      <point x="58" y="0" type="line"/>
      <point x="297" y="1606" type="line"/>
    </contour>
  </outline>
</glyph>
<glyph name="afii10050" format="1">
  <advance width="1071"/>
  <unicode hex="0490"/>
  <outline>
    <contour>
      <point x="1163" y="1387" type="line"/>
      <point x="941" y="1387" type="line"/>
      <point x="1000" y="1802" type="line"/>
      <point x="1222" y="1802" type="line"/>
    </contour>
    <contour>
      <point x="1194" y="1606" type="line"/>
      <point x="1164" y="1387" type="line"/>
      <point x="580" y="1387" type="line"/>
      <point x="374" y="0" type="line"/>
      <point x="57" y="0" type="line"/>
      <point x="298" y="1606" type="line"/>
    </contour>
  </outline>
</glyph>
<glyph name="uni0494" format="1">
  <advance width="1420"/>
  <unicode hex="0494"/>
  <outline>
    <contour>
      <point x="291" y="1605" type="line"/>
      <point x="1434" y="1605" type="line"/>
      <point x="1398" y="1354" type="line"/>
      <point x="654" y="1354" type="line"/>
      <point x="606" y="1018" type="line"/>
      <point x="709" y="1018"/>
      <point x="827" y="1022"/>
      <point x="926" y="1012" type="curve" smooth="yes"/>
      <point x="1173" y="986"/>
      <point x="1330" y="869"/>
      <point x="1286" y="567" type="curve" smooth="yes"/>
      <point x="1233" y="191" type="line" smooth="yes"/>
      <point x="1203" y="-28"/>
      <point x="1111" y="-198"/>
      <point x="935" y="-266" type="curve" smooth="yes"/>
      <point x="883" y="-286"/>
      <point x="826" y="-296"/>
      <point x="764" y="-296" type="curve" smooth="yes"/>
      <point x="670" y="-296"/>
      <point x="596" y="-282"/>
      <point x="539" y="-246" type="curve"/>
      <point x="591" y="-38" type="line"/>
      <point x="642" y="-48" type="line"/>
      <point x="779" y="-48"/>
      <point x="834" y="43"/>
      <point x="852" y="170" type="curve" smooth="yes"/>
      <point x="912" y="593" type="line" smooth="yes"/>
      <point x="941" y="799"/>
      <point x="781" y="834"/>
      <point x="580" y="834" type="curve"/>
      <point x="463" y="0" type="line"/>
      <point x="64" y="0" type="line"/>
    </contour>
  </outline>
</glyph>
<glyph name="uni0495" format="1">
  <advance width="1286"/>
  <unicode hex="0495"/>
  <outline>
    <contour>
      <point x="714" y="-22" type="curve" smooth="yes"/>
      <point x="737" y="64"/>
      <point x="766" y="210"/>
      <point x="748" y="316" type="curve" smooth="yes"/>
      <point x="725" y="451"/>
      <point x="638" y="520"/>
      <point x="482" y="520" type="curve"/>
      <point x="409" y="0" type="line"/>
      <point x="32" y="0" type="line"/>
      <point x="190" y="1127" type="line"/>
      <point x="1260" y="1127" type="line"/>
      <point x="1235" y="948" type="line"/>
      <point x="542" y="948" type="line"/>
      <point x="508" y="706" type="line"/>
      <point x="822" y="706"/>
      <point x="1068" y="596"/>
      <point x="1122" y="334" type="curve" smooth="yes"/>
      <point x="1133" y="279"/>
      <point x="1134" y="216"/>
      <point x="1124" y="147" type="curve" smooth="yes"/>
      <point x="1083" y="-149"/>
      <point x="980" y="-399"/>
      <point x="754" y="-503" type="curve" smooth="yes"/>
      <point x="687" y="-534"/>
      <point x="611" y="-549"/>
      <point x="527" y="-549" type="curve" smooth="yes"/>
      <point x="495" y="-549" type="line"/>
      <point x="475" y="-272" type="line"/>
      <point x="569" y="-272"/>
      <point x="624" y="-219"/>
      <point x="661" y="-154" type="curve" smooth="yes"/>
      <point x="682" y="-117"/>
      <point x="700" y="-74"/>
    </contour>
  </outline>
</glyph>
<glyph name="uni049E" format="1">
  <advance width="1500"/>
  <unicode hex="049E"/>
  <outline>
    <contour>
      <point x="74" y="1199" type="line"/>
      <point x="104" y="1411" type="line"/>
      <point x="916" y="1411" type="line"/>
      <point x="886" y="1199" type="line"/>
    </contour>
    <contour>
      <point x="455" y="0" type="line"/>
      <point x="139" y="0" type="line"/>
      <point x="379" y="1606" type="line"/>
      <point x="694" y="1606" type="line"/>
      <point x="591" y="912" type="line"/>
      <point x="829" y="912" type="line"/>
      <point x="1244" y="1606" type="line"/>
      <point x="1585" y="1606" type="line"/>
      <point x="1231" y="1045" type="line"/>
      <point x="1160" y="931"/>
      <point x="1099" y="840"/>
      <point x="951" y="811" type="curve"/>
      <point x="1073" y="792"/>
      <point x="1106" y="709"/>
      <point x="1149" y="606" type="curve"/>
      <point x="1411" y="0" type="line"/>
      <point x="1067" y="0" type="line"/>
      <point x="791" y="696" type="line"/>
      <point x="558" y="696" type="line"/>
    </contour>
  </outline>
</glyph>
<glyph name="uni04A1" format="1">
  <advance width="1404"/>
  <unicode hex="04A1"/>
  <outline>
    <contour>
      <point x="75" y="935" type="line"/>
      <point x="102" y="1127" type="line"/>
      <point x="608" y="1127" type="line"/>
      <point x="581" y="935" type="line"/>
    </contour>
    <contour>
      <point x="614" y="1127" type="line"/>
      <point x="552" y="703" type="line"/>
      <point x="788" y="703" type="line"/>
      <point x="1055" y="1127" type="line"/>
      <point x="1422" y="1127" type="line"/>
      <point x="1170" y="764" type="line" smooth="yes"/>
      <point x="1139" y="720"/>
      <point x="1078" y="681"/>
      <point x="1030" y="654" type="curve" smooth="yes"/>
      <point x="988" y="630"/>
      <point x="949" y="607"/>
      <point x="895" y="604" type="curve"/>
      <point x="936" y="592"/>
      <point x="981" y="585"/>
      <point x="1014" y="562" type="curve" smooth="yes"/>
      <point x="1062" y="528"/>
      <point x="1097" y="481"/>
      <point x="1124" y="414" type="curve"/>
      <point x="1287" y="0" type="line"/>
      <point x="928" y="0" type="line"/>
      <point x="770" y="470" type="line"/>
      <point x="519" y="470" type="line"/>
      <point x="450" y="0" type="line"/>
      <point x="145" y="0" type="line"/>
      <point x="309" y="1127" type="line"/>
    </contour>
  </outline>
</glyph>
<glyph name="uni04A2" format="1">
  <advance width="1529"/>
  <unicode hex="04A2"/>
  <outline>
    <contour>
      <point x="1390" y="-408" type="line"/>
      <point x="1168" y="-408" type="line"/>
      <point x="1231" y="36" type="line"/>
      <point x="1453" y="36" type="line"/>
    </contour>
    <contour>
      <point x="953" y="0" type="line"/>
      <point x="1062" y="724" type="line"/>
      <point x="480" y="724" type="line"/>
      <point x="373" y="0" type="line"/>
      <point x="57" y="0" type="line"/>
      <point x="297" y="1606" type="line"/>
      <point x="612" y="1606" type="line"/>
      <point x="514" y="951" type="line"/>
      <point x="1093" y="951" type="line"/>
      <point x="1193" y="1606" type="line"/>
      <point x="1504" y="1606" type="line"/>
      <point x="1264" y="0" type="line"/>
    </contour>
  </outline>
</glyph>
<glyph name="uni04A5" format="1">
  <advance width="1515"/>
  <unicode hex="04A5"/>
  <outline>
    <contour>
      <point x="1576" y="1127" type="line"/>
      <point x="1545" y="905" type="line"/>
      <point x="1121" y="905" type="line"/>
      <point x="1152" y="1127" type="line"/>
    </contour>
    <contour>
      <point x="434" y="699" type="line"/>
      <point x="890" y="699" type="line"/>
      <point x="953" y="1127" type="line"/>
      <point x="1256" y="1127" type="line"/>
      <point x="1094" y="0" type="line"/>
      <point x="789" y="0" type="line"/>
      <point x="853" y="448" type="line"/>
      <point x="398" y="448" type="line"/>
      <point x="333" y="0" type="line"/>
      <point x="28" y="0" type="line"/>
      <point x="192" y="1127" type="line"/>
      <point x="497" y="1127" type="line"/>
    </contour>
  </outline>
</glyph>
<glyph name="uni04A8" format="1">
  <advance width="1520"/>
  <unicode hex="04A8"/>
  <outline>
    <contour>
      <point x="1085" y="1003" type="curve" smooth="yes"/>
      <point x="1308" y="1003"/>
      <point x="1449" y="901"/>
      <point x="1449" y="683" type="curve" smooth="yes"/>
      <point x="1449" y="522"/>
      <point x="1384" y="392"/>
      <point x="1316" y="290" type="curve" smooth="yes"/>
      <point x="1244" y="182"/>
      <point x="1145" y="77"/>
      <point x="1011" y="37" type="curve"/>
      <point x="935" y="288" type="line"/>
      <point x="1049" y="320"/>
      <point x="1127" y="430"/>
      <point x="1162" y="540" type="curve" smooth="yes"/>
      <point x="1174" y="577"/>
      <point x="1180" y="611"/>
      <point x="1180" y="642" type="curve" smooth="yes"/>
      <point x="1180" y="711"/>
      <point x="1153" y="764"/>
      <point x="1084" y="764" type="curve" smooth="yes"/>
      <point x="1040" y="764"/>
      <point x="1004" y="735"/>
      <point x="980" y="705" type="curve" smooth="yes"/>
      <point x="941" y="656"/>
      <point x="920" y="584"/>
      <point x="920" y="490" type="curve" smooth="yes"/>
      <point x="920" y="292"/>
      <point x="1030" y="162"/>
      <point x="1172" y="100" type="curve" smooth="yes"/>
      <point x="1227" y="76"/>
      <point x="1291" y="63"/>
      <point x="1364" y="62" type="curve"/>
      <point x="1365" y="-176" type="line"/>
      <point x="1119" y="-176"/>
      <point x="933" y="-89"/>
      <point x="812" y="37" type="curve" smooth="yes"/>
      <point x="706" y="147"/>
      <point x="627" y="308"/>
      <point x="627" y="508" type="curve" smooth="yes"/>
      <point x="627" y="734"/>
      <point x="730" y="892"/>
      <point x="888" y="964" type="curve" smooth="yes"/>
      <point x="945" y="990"/>
      <point x="1011" y="1003"/>
    </contour>
    <contour>
      <point x="648" y="-38" type="curve" smooth="yes"/>
      <point x="275" y="-38"/>
      <point x="100" y="187"/>
      <point x="100" y="565" type="curve" smooth="yes"/>
      <point x="100" y="1069"/>
      <point x="261" y="1461"/>
      <point x="638" y="1590" type="curve" smooth="yes"/>
      <point x="715" y="1616"/>
      <point x="802" y="1629"/>
      <point x="898" y="1629" type="curve" smooth="yes"/>
      <point x="1042" y="1629"/>
      <point x="1164" y="1594"/>
      <point x="1254" y="1544" type="curve" smooth="yes"/>
      <point x="1275" y="1532"/>
      <point x="1289" y="1525"/>
      <point x="1297" y="1522" type="curve"/>
      <point x="1191" y="1265" type="line"/>
      <point x="1187" y="1266"/>
      <point x="1176" y="1270"/>
      <point x="1158" y="1280" type="curve" smooth="yes"/>
      <point x="1084" y="1319"/>
      <point x="980" y="1356"/>
      <point x="864" y="1356" type="curve" smooth="yes"/>
      <point x="703" y="1356"/>
      <point x="603" y="1256"/>
      <point x="538" y="1144" type="curve" smooth="yes"/>
      <point x="459" y="1008"/>
      <point x="419" y="813"/>
      <point x="419" y="595" type="curve" smooth="yes"/>
      <point x="419" y="353"/>
      <point x="513" y="232"/>
      <point x="701" y="232" type="curve" smooth="yes"/>
      <point x="841" y="232"/>
      <point x="955" y="290"/>
      <point x="1042" y="341" type="curve"/>
      <point x="1097" y="94" type="line"/>
      <point x="993" y="12"/>
      <point x="835" y="-38"/>
    </contour>
  </outline>
</glyph>
<glyph name="uni04AB" format="1">
  <advance width="987"/>
  <unicode hex="04AB"/>
  <outline>
    <contour>
      <point x="515" y="-615" type="curve" smooth="yes"/>
      <point x="432" y="-615"/>
      <point x="364" y="-596"/>
      <point x="316" y="-563" type="curve"/>
      <point x="316" y="-437" type="line"/>
      <point x="367" y="-454"/>
      <point x="425" y="-476"/>
      <point x="489" y="-476" type="curve" smooth="yes"/>
      <point x="559" y="-476"/>
      <point x="601" y="-454"/>
      <point x="601" y="-383" type="curve" smooth="yes"/>
      <point x="601" y="-348"/>
      <point x="581" y="-312"/>
      <point x="566" y="-282" type="curve" smooth="yes"/>
      <point x="511" y="-171"/>
      <point x="453" y="-84"/>
      <point x="382" y="19" type="curve"/>
      <point x="492" y="19" type="line"/>
      <point x="571" y="-42"/>
      <point x="632" y="-102"/>
      <point x="692" y="-176" type="curve" smooth="yes"/>
      <point x="724" y="-216"/>
      <point x="754" y="-263"/>
      <point x="772" y="-314" type="curve" smooth="yes"/>
      <point x="780" y="-337"/>
      <point x="784" y="-360"/>
      <point x="784" y="-383" type="curve" smooth="yes"/>
      <point x="784" y="-537"/>
      <point x="670" y="-615"/>
    </contour>
    <contour>
      <point x="829" y="88" type="line"/>
      <point x="724" y="28"/>
      <point x="618" y="-14"/>
      <point x="457" y="-17" type="curve"/>
      <point x="252" y="-15"/>
      <point x="126" y="91"/>
      <point x="73" y="248" type="curve" smooth="yes"/>
      <point x="23" y="396"/>
      <point x="49" y="600"/>
      <point x="102" y="732" type="curve" smooth="yes"/>
      <point x="168" y="895"/>
      <point x="279" y="1025"/>
      <point x="430" y="1095" type="curve" smooth="yes"/>
      <point x="502" y="1128"/>
      <point x="575" y="1145"/>
      <point x="652" y="1145" type="curve" smooth="yes"/>
      <point x="807" y="1145"/>
      <point x="897" y="1104"/>
      <point x="990" y="1043" type="curve"/>
      <point x="897" y="829" type="line"/>
      <point x="867" y="868"/>
      <point x="795" y="893"/>
      <point x="738" y="907" type="curve" smooth="yes"/>
      <point x="714" y="913"/>
      <point x="691" y="916"/>
      <point x="668" y="916" type="curve" smooth="yes"/>
      <point x="456" y="916"/>
      <point x="395" y="761"/>
      <point x="365" y="575" type="curve"/>
      <point x="358" y="541"/>
      <point x="354" y="504"/>
      <point x="354" y="464" type="curve" smooth="yes"/>
      <point x="350" y="297"/>
      <point x="422" y="213"/>
      <point x="570" y="213" type="curve" smooth="yes"/>
      <point x="655" y="213"/>
      <point x="724" y="247"/>
      <point x="775" y="280" type="curve" smooth="yes"/>
      <point x="809" y="302" type="line"/>
    </contour>
  </outline>
</glyph>
<glyph name="uni04B2" format="1">
  <advance width="1385"/>
  <unicode hex="04B2"/>
  <outline>
    <contour>
      <point x="1265" y="-408" type="line"/>
      <point x="1043" y="-408" type="line"/>
      <point x="1106" y="36" type="line"/>
      <point x="1328" y="36" type="line"/>
    </contour>
    <contour>
      <point x="850" y="804" type="line"/>
      <point x="1197" y="0" type="line"/>
      <point x="844" y="0" type="line"/>
      <point x="633" y="516" type="line"/>
      <point x="272" y="0" type="line"/>
      <point x="-80" y="0" type="line"/>
      <point x="494" y="804" type="line"/>
      <point x="145" y="1606" type="line"/>
      <point x="500" y="1606" type="line"/>
      <point x="709" y="1083" type="line"/>
      <point x="1071" y="1606" type="line"/>
      <point x="1426" y="1606" type="line"/>
    </contour>
  </outline>
</glyph>
<glyph name="uni04CA" format="1">
  <advance width="1373"/>
  <unicode hex="04CA"/>
  <outline>
    <contour>
      <point x="1235" y="-408" type="line"/>
      <point x="1013" y="-408" type="line"/>
      <point x="1076" y="36" type="line"/>
      <point x="1298" y="36" type="line"/>
    </contour>
    <contour>
      <point x="434" y="699" type="line"/>
      <point x="890" y="699" type="line"/>
      <point x="953" y="1127" type="line"/>
      <point x="1256" y="1127" type="line"/>
      <point x="1094" y="0" type="line"/>
      <point x="789" y="0" type="line"/>
      <point x="853" y="448" type="line"/>
      <point x="398" y="448" type="line"/>
      <point x="333" y="0" type="line"/>
      <point x="28" y="0" type="line"/>
      <point x="192" y="1127" type="line"/>
      <point x="497" y="1127" type="line"/>
    </contour>
  </outline>
</glyph>
<glyph name="uni04CF" format="1">
  <advance width="859"/>
  <unicode hex="04CF"/>
  <outline>
    <contour>
      <point x="170" y="181" type="line"/>
      <point x="287" y="1016" type="line"/>
      <point x="115" y="1016" type="line"/>
      <point x="141" y="1198" type="line"/>
      <point x="864" y="1198" type="line"/>
      <point x="838" y="1016" type="line"/>
      <point x="664" y="1016" type="line"/>
      <point x="547" y="181" type="line"/>
      <point x="721" y="181" type="line"/>
      <point x="696" y="0" type="line"/>
      <point x="-27" y="0" type="line"/>
      <point x="-2" y="181" type="line"/>
    </contour>
  </outline>
</glyph>
<glyph name="uni04E0" format="1">
  <advance width="1136"/>
  <unicode hex="04E0"/>
  <outline>
    <contour>
      <point x="86" y="318" type="line"/>
      <point x="146" y="291"/>
      <point x="237" y="270"/>
      <point x="325" y="270" type="curve" smooth="yes"/>
      <point x="504" y="270"/>
      <point x="618" y="350"/>
      <point x="641" y="509" type="curve" smooth="yes"/>
      <point x="660" y="634"/>
      <point x="583" y="710"/>
      <point x="492" y="746" type="curve" smooth="yes"/>
      <point x="452" y="762"/>
      <point x="402" y="769"/>
      <point x="342" y="769" type="curve" smooth="yes"/>
      <point x="312" y="769"/>
      <point x="280" y="767"/>
      <point x="247" y="763" type="curve"/>
      <point x="277" y="981" type="line"/>
      <point x="689" y="1351" type="line"/>
      <point x="207" y="1351" type="line"/>
      <point x="247" y="1632" type="line"/>
      <point x="1145" y="1632" type="line"/>
      <point x="1109" y="1378" type="line"/>
      <point x="628" y="964" type="line"/>
      <point x="788" y="941"/>
      <point x="908" y="889"/>
      <point x="976" y="789" type="curve" smooth="yes"/>
      <point x="1070" y="651"/>
      <point x="1033" y="400"/>
      <point x="954" y="268" type="curve" smooth="yes"/>
      <point x="847" y="88"/>
      <point x="642" y="-19"/>
      <point x="358" y="-19" type="curve" smooth="yes"/>
      <point x="210" y="-19"/>
      <point x="82" y="8"/>
      <point x="-42" y="46" type="curve"/>
    </contour>
  </outline>
</glyph>
<glyph name="uni04E8" format="1">
  <advance width="1649"/>
  <unicode hex="04E8"/>
  <outline>
    <contour>
      <point x="1592" y="1168" type="curve" smooth="yes"/>
      <point x="1628" y="926"/>
      <point x="1566" y="633"/>
      <point x="1492" y="461" type="curve" smooth="yes"/>
      <point x="1368" y="173"/>
      <point x="1134" y="-28"/>
      <point x="730" y="-28" type="curve" smooth="yes"/>
      <point x="236" y="-28"/>
      <point x="35" y="282"/>
      <point x="108" y="811" type="curve"/>
      <point x="162" y="1192"/>
      <point x="324" y="1479"/>
      <point x="633" y="1600" type="curve" smooth="yes"/>
      <point x="731" y="1638"/>
      <point x="842" y="1657"/>
      <point x="966" y="1657" type="curve" smooth="yes"/>
      <point x="1333" y="1657"/>
      <point x="1544" y="1486"/>
    </contour>
    <contour>
      <point x="1205" y="1029" type="curve" smooth="yes"/>
      <point x="1205" y="1232"/>
      <point x="1129" y="1371"/>
      <point x="925" y="1371" type="curve" smooth="yes"/>
      <point x="776" y="1371"/>
      <point x="688" y="1299"/>
      <point x="628" y="1204" type="curve" smooth="yes"/>
      <point x="577" y="1124"/>
      <point x="545" y="1022"/>
      <point x="523" y="912" type="curve"/>
      <point x="1201" y="912" type="line"/>
      <point x="1204" y="952"/>
      <point x="1205" y="991"/>
    </contour>
    <contour>
      <point x="491" y="602" type="curve" smooth="yes"/>
      <point x="491" y="399"/>
      <point x="565" y="258"/>
      <point x="770" y="258" type="curve" smooth="yes"/>
      <point x="920" y="258"/>
      <point x="1012" y="332"/>
      <point x="1072" y="428" type="curve" smooth="yes"/>
      <point x="1104" y="480"/>
      <point x="1129" y="540"/>
      <point x="1147" y="607" type="curve" smooth="yes"/>
      <point x="1155" y="634"/>
      <point x="1162" y="662"/>
      <point x="1167" y="690" type="curve"/>
      <point x="493" y="690" type="line"/>
      <point x="492" y="660"/>
      <point x="491" y="631"/>
    </contour>
  </outline>
</glyph>
<glyph name="emdash" format="1">
  <advance width="2102"/>
  <unicode hex="2014"/>
  <outline>
    <contour>
      <point x="150" y="605" type="line"/>
      <point x="143" y="831" type="line"/>
      <point x="1961" y="831" type="line"/>
      <point x="1968" y="605" type="line"/>
    </contour>
  </outline>
</glyph>
<glyph name="quoteleft" format="1">
  <advance width="618"/>
  <unicode hex="2018"/>
  <outline>
    <contour>
      <point x="600" y="1307" type="line"/>
      <point x="557" y="886" type="line"/>
      <point x="158" y="886" type="line"/>
      <point x="202" y="1305" type="line"/>
      <point x="220" y="1495"/>
      <point x="334" y="1607"/>
      <point x="494" y="1650" type="curve"/>
      <point x="574" y="1529" type="line"/>
      <point x="522" y="1486"/>
      <point x="465" y="1430"/>
      <point x="433" y="1367" type="curve" smooth="yes"/>
      <point x="422" y="1346"/>
      <point x="416" y="1326"/>
      <point x="415" y="1307" type="curve"/>
    </contour>
  </outline>
</glyph>
<glyph name="quotesinglbase" format="1">
  <advance width="655"/>
  <unicode hex="201A"/>
  <outline>
    <contour>
      <point x="30" y="-1" type="line"/>
      <point x="86" y="421" type="line"/>
      <point x="485" y="421" type="line"/>
      <point x="428" y="1" type="line"/>
      <point x="404" y="-185"/>
      <point x="291" y="-304"/>
      <point x="128" y="-345" type="curve"/>
      <point x="49" y="-224" type="line"/>
      <point x="63" y="-219"/>
      <point x="81" y="-198"/>
      <point x="95" y="-184" type="curve" smooth="yes"/>
      <point x="133" y="-145"/>
      <point x="172" y="-99"/>
      <point x="198" y="-48" type="curve" smooth="yes"/>
      <point x="206" y="-31"/>
      <point x="212" y="-16"/>
      <point x="214" y="-1" type="curve"/>
    </contour>
  </outline>
</glyph>
<glyph name="quotedblright" format="1">
  <advance width="1032"/>
  <unicode hex="201D"/>
  <outline>
    <contour>
      <point x="179" y="1195" type="line"/>
      <point x="222" y="1617" type="line"/>
      <point x="621" y="1617" type="line"/>
      <point x="576" y="1197" type="line" smooth="yes"/>
      <point x="556" y="1009"/>
      <point x="444" y="894"/>
      <point x="284" y="851" type="curve"/>
      <point x="204" y="973" type="line"/>
      <point x="218" y="978"/>
      <point x="237" y="1000"/>
      <point x="250" y="1014" type="curve" smooth="yes"/>
      <point x="286" y="1052"/>
      <point x="325" y="1098"/>
      <point x="349" y="1148" type="curve" smooth="yes"/>
      <point x="357" y="1164"/>
      <point x="362" y="1180"/>
      <point x="363" y="1195" type="curve"/>
    </contour>
    <contour>
      <point x="624" y="1195" type="line"/>
      <point x="668" y="1617" type="line"/>
      <point x="1067" y="1617" type="line"/>
      <point x="1023" y="1197" type="line"/>
      <point x="1001" y="1011"/>
      <point x="892" y="891"/>
      <point x="730" y="851" type="curve"/>
      <point x="649" y="973" type="line"/>
      <point x="663" y="977"/>
      <point x="682" y="1001"/>
      <point x="695" y="1014" type="curve" smooth="yes"/>
      <point x="732" y="1052"/>
      <point x="770" y="1098"/>
      <point x="795" y="1148" type="curve" smooth="yes"/>
      <point x="803" y="1164"/>
      <point x="808" y="1180"/>
      <point x="809" y="1195" type="curve"/>
    </contour>
  </outline>
</glyph>
<glyph name="dagger" format="1">
  <advance width="976"/>
  <unicode hex="2020"/>
  <outline>
    <contour>
      <point x="399" y="1022" type="line"/>
      <point x="120" y="1022" type="line"/>
      <point x="160" y="1246" type="line"/>
      <point x="430" y="1246" type="line"/>
      <point x="469" y="1524" type="line"/>
      <point x="746" y="1524" type="line"/>
      <point x="707" y="1244" type="line"/>
      <point x="999" y="1244" type="line"/>
      <point x="960" y="1022" type="line"/>
      <point x="677" y="1022" type="line"/>
      <point x="537" y="0" type="line"/>
      <point x="257" y="0" type="line"/>
    </contour>
  </outline>
</glyph>
<glyph name="bullet" format="1">
  <advance width="889"/>
  <unicode hex="2022"/>
  <outline>
    <contour>
      <point x="79" y="640" type="curve" smooth="yes"/>
      <point x="79" y="649" type="line" smooth="yes"/>
      <point x="79" y="652"/>
      <point x="79" y="655"/>
      <point x="80" y="658" type="curve" smooth="yes"/>
      <point x="80" y="777"/>
      <point x="136" y="873"/>
      <point x="200" y="938" type="curve" smooth="yes"/>
      <point x="264" y="1003"/>
      <point x="359" y="1061"/>
      <point x="480" y="1061" type="curve" smooth="yes"/>
      <point x="634" y="1061"/>
      <point x="737" y="981"/>
      <point x="786" y="874" type="curve" smooth="yes"/>
      <point x="825" y="789"/>
      <point x="825" y="681"/>
      <point x="788" y="590" type="curve" smooth="yes"/>
      <point x="746" y="488"/>
      <point x="669" y="408"/>
      <point x="570" y="362" type="curve" smooth="yes"/>
      <point x="520" y="338"/>
      <point x="466" y="326"/>
      <point x="408" y="326" type="curve" smooth="yes"/>
      <point x="256" y="326"/>
      <point x="153" y="407"/>
      <point x="106" y="514" type="curve" smooth="yes"/>
      <point x="89" y="552"/>
      <point x="80" y="595"/>
    </contour>
  </outline>
</glyph>
<glyph name="guilsinglleft" format="1">
  <advance width="901"/>
  <unicode hex="2039"/>
  <outline>
    <contour>
      <point x="809" y="877" type="line"/>
      <point x="293" y="590" type="line"/>
      <point x="751" y="291" type="line"/>
      <point x="719" y="-37" type="line"/>
      <point x="25" y="464" type="line"/>
      <point x="47" y="706" type="line"/>
      <point x="844" y="1206" type="line"/>
    </contour>
  </outline>
</glyph>
<glyph name="guilsinglright" format="1">
  <advance width="902"/>
  <unicode hex="203A"/>
  <outline>
    <contour>
      <point x="139" y="896" type="line"/>
      <point x="169" y="1206" type="line"/>
      <point x="852" y="706" type="line"/>
      <point x="833" y="484" type="line"/>
      <point x="25" y="-17" type="line"/>
      <point x="66" y="312" type="line"/>
      <point x="547" y="609" type="line"/>
    </contour>
  </outline>
</glyph>
<glyph name="Euro" format="1">
  <advance width="1391"/>
  <unicode hex="20AC"/>
  <outline>
    <contour>
      <point x="265" y="456" type="curve" smooth="yes"/>
      <point x="260" y="490"/>
      <point x="258" y="527"/>
      <point x="258" y="566" type="curve"/>
      <point x="100" y="566" type="line"/>
      <point x="126" y="752" type="line"/>
      <point x="264" y="752" type="line"/>
      <point x="267" y="778"/>
      <point x="272" y="816"/>
      <point x="279" y="866" type="curve"/>
      <point x="101" y="866" type="line"/>
      <point x="127" y="1052" type="line"/>
      <point x="320" y="1052" type="line"/>
      <point x="392" y="1299"/>
      <point x="536" y="1488"/>
      <point x="772" y="1571" type="curve" smooth="yes"/>
      <point x="850" y="1598"/>
      <point x="937" y="1612"/>
      <point x="1034" y="1612" type="curve" smooth="yes"/>
      <point x="1195" y="1612"/>
      <point x="1327" y="1569"/>
      <point x="1421" y="1506" type="curve"/>
      <point x="1318" y="1252" type="line"/>
      <point x="1233" y="1295"/>
      <point x="1123" y="1344"/>
      <point x="990" y="1340" type="curve"/>
      <point x="804" y="1337"/>
      <point x="706" y="1206"/>
      <point x="647" y="1052" type="curve"/>
      <point x="1041" y="1052" type="line"/>
      <point x="1016" y="866" type="line"/>
      <point x="596" y="866" type="line"/>
      <point x="589" y="832"/>
      <point x="585" y="792"/>
      <point x="581" y="752" type="curve"/>
      <point x="950" y="752" type="line"/>
      <point x="925" y="566" type="line"/>
      <point x="575" y="566" type="line"/>
      <point x="578" y="527"/>
      <point x="580" y="481"/>
      <point x="589" y="448" type="curve"/>
      <point x="617" y="315"/>
      <point x="692" y="230"/>
      <point x="843" y="230" type="curve" smooth="yes"/>
      <point x="980" y="230"/>
      <point x="1094" y="284"/>
      <point x="1176" y="336" type="curve"/>
      <point x="1233" y="92" type="line"/>
      <point x="1138" y="8"/>
      <point x="975" y="-38"/>
      <point x="795" y="-38" type="curve" smooth="yes"/>
      <point x="469" y="-38"/>
      <point x="299" y="148"/>
      <point x="264" y="445" type="curve"/>
      <point x="264" y="452" type="line" smooth="yes"/>
      <point x="264" y="453"/>
      <point x="264" y="455"/>
    </contour>
  </outline>
</glyph>
<glyph name="uniFB01" format="1">
  <advance width="1334"/>
  <unicode hex="FB01"/>
  <outline>
    <contour>
      <point x="1108" y="0" type="line"/>
      <point x="803" y="0" type="line"/>
      <point x="944" y="974" type="line"/>
      <point x="523" y="974" type="line"/>
      <point x="397" y="0" type="line"/>
      <point x="93" y="0" type="line"/>
      <point x="220" y="974" type="line"/>
      <point x="85" y="974" type="line"/>
      <point x="106" y="1127" type="line"/>
      <point x="240" y="1127" type="line"/>
      <point x="268" y="1334"/>
      <point x="348" y="1511"/>
      <point x="500" y="1592" type="curve" smooth="yes"/>
      <point x="549" y="1618"/>
      <point x="606" y="1631"/>
      <point x="669" y="1631" type="curve" smooth="yes"/>
      <point x="741" y="1631"/>
      <point x="807" y="1612"/>
      <point x="863" y="1593" type="curve"/>
      <point x="825" y="1354" type="line"/>
      <point x="792" y="1371"/>
      <point x="749" y="1379"/>
      <point x="698" y="1379" type="curve" smooth="yes"/>
      <point x="615" y="1379"/>
      <point x="564" y="1295"/>
      <point x="544" y="1127" type="curve"/>
      <point x="1272" y="1127" type="line"/>
    </contour>
    <contour>
      <point x="1209" y="1670" type="curve" smooth="yes"/>
      <point x="1295" y="1670"/>
      <point x="1351" y="1606"/>
      <point x="1351" y="1520" type="curve" smooth="yes"/>
      <point x="1351" y="1423"/>
      <point x="1293" y="1356"/>
      <point x="1224" y="1326" type="curve" smooth="yes"/>
      <point x="1202" y="1317"/>
      <point x="1180" y="1312"/>
      <point x="1157" y="1312" type="curve" smooth="yes"/>
      <point x="1073" y="1312"/>
      <point x="1012" y="1375"/>
      <point x="1015" y="1461" type="curve"/>
      <point x="1015" y="1554"/>
      <point x="1074" y="1622"/>
      <point x="1138" y="1653" type="curve" smooth="yes"/>
      <point x="1161" y="1664"/>
      <point x="1185" y="1670"/>
    </contour>
  </outline>
</glyph>
<glyph name=".notdef" format="1">
  <advance width="761"/>
  <outline>
    <contour>
      <point x="87" y="0" type="line"/>
      <point x="283" y="1402" type="line"/>
      <point x="863" y="1402" type="line"/>
      <point x="667" y="0" type="line"/>
    </contour>
    <contour>
      <point x="261" y="123" type="line"/>
      <point x="525" y="123" type="line"/>
      <point x="687" y="1279" type="line"/>
      <point x="421" y="1279" type="line"/>
    </contour>
  </outline>
</glyph>
<glyph name="f_j" format="1">
  <advance width="1392"/>
  <outline>
    <contour>
      <point x="671" y="-129" type="line"/>
      <point x="764" y="-70"/>
      <point x="834" y="-12"/>
      <point x="872" y="100" type="curve" smooth="yes"/>
      <point x="884" y="134"/>
      <point x="893" y="175"/>
      <point x="899" y="222" type="curve" smooth="yes"/>
      <point x="998" y="974" type="line"/>
      <point x="523" y="974" type="line"/>
      <point x="397" y="0" type="line"/>
      <point x="93" y="0" type="line"/>
      <point x="219" y="974" type="line"/>
      <point x="84" y="974" type="line"/>
      <point x="106" y="1127" type="line"/>
      <point x="239" y="1127" type="line"/>
      <point x="268" y="1334"/>
      <point x="346" y="1511"/>
      <point x="500" y="1592" type="curve" smooth="yes"/>
      <point x="549" y="1618"/>
      <point x="606" y="1631"/>
      <point x="669" y="1631" type="curve" smooth="yes"/>
      <point x="741" y="1631"/>
      <point x="807" y="1612"/>
      <point x="863" y="1593" type="curve"/>
      <point x="825" y="1354" type="line"/>
      <point x="792" y="1371"/>
      <point x="749" y="1379"/>
      <point x="698" y="1379" type="curve" smooth="yes"/>
      <point x="617" y="1379"/>
      <point x="565" y="1295"/>
      <point x="543" y="1127" type="curve"/>
      <point x="1324" y="1127" type="line"/>
      <point x="1202" y="202" type="line"/>
      <point x="1169" y="-20"/>
      <point x="1051" y="-189"/>
      <point x="895" y="-287" type="curve" smooth="yes"/>
      <point x="843" y="-320"/>
      <point x="789" y="-343"/>
      <point x="732" y="-357" type="curve"/>
    </contour>
    <contour>
      <point x="1234" y="1670" type="curve" smooth="yes"/>
      <point x="1319" y="1670"/>
      <point x="1378" y="1605"/>
      <point x="1378" y="1520" type="curve"/>
      <point x="1389" y="1428"/>
      <point x="1318" y="1354"/>
      <point x="1254" y="1326" type="curve" smooth="yes"/>
      <point x="1233" y="1317"/>
      <point x="1210" y="1312"/>
      <point x="1187" y="1312" type="curve" smooth="yes"/>
      <point x="1101" y="1312"/>
      <point x="1043" y="1375"/>
      <point x="1043" y="1461" type="curve" smooth="yes"/>
      <point x="1043" y="1553"/>
      <point x="1099" y="1622"/>
      <point x="1162" y="1653" type="curve" smooth="yes"/>
      <point x="1185" y="1664"/>
      <point x="1209" y="1670"/>
    </contour>
  </outline>
</glyph>
